<svg width="630" height="458" viewBox="0 0 630 458" fill="none" xmlns="http://www.w3.org/2000/svg">
<path d="M314.961 0.719485C401.954 0.719493 476.835 15.4751 537.504 44.5938C579.657 64.8168 629.905 99.7049 629.905 151.085C629.905 202.466 579.657 237.369 537.504 257.592C476.82 286.696 401.954 301.391 314.961 301.391C227.967 301.391 153.086 286.62 92.4021 257.592C50.2495 237.369 0.0016566 202.466 0.00166109 151.085C0.00166558 99.7048 50.2495 64.8168 92.4021 44.5938C153.056 15.4751 227.952 0.719478 314.961 0.719485ZM314.961 299.956C401.728 299.956 476.382 285.246 536.855 256.233C578.615 236.191 628.394 201.681 628.394 151.085C628.394 100.49 578.554 65.9797 536.855 45.9531C476.442 16.9401 401.728 2.22978 314.961 2.22977C228.194 2.22976 153.524 16.9401 93.0667 45.9531C51.2916 65.9797 1.51198 100.49 1.51198 151.085C1.51197 201.681 51.352 236.191 93.0667 256.233C153.524 285.246 228.194 299.956 314.961 299.956Z" fill="black"/>
<path d="M314.961 7.84818C397.454 7.84819 468.77 21.894 526.917 49.6232C599.668 84.3603 614.937 123.945 614.937 151.086C614.937 178.226 599.668 217.856 526.917 252.548C468.77 280.277 397.453 294.338 314.961 294.338C231.803 294.338 160.487 280.277 102.989 252.548C62.8303 233.186 14.9688 199.868 14.9688 151.085C14.9688 102.303 62.8303 68.9853 102.989 49.6232C160.487 21.894 231.803 7.84817 314.961 7.84818ZM314.961 292.828C397.227 292.828 468.332 278.812 526.267 251.188C598.309 216.844 613.427 177.788 613.427 151.086C613.427 124.383 598.324 85.3419 526.267 50.9825C468.332 23.359 397.227 9.3585 314.961 9.35849C232.03 9.35849 160.91 23.359 103.639 50.9825C63.8725 70.1633 16.4791 103.088 16.4791 151.085C16.4791 199.083 63.8724 232.008 103.639 251.188C160.94 278.812 232.045 292.828 314.961 292.828Z" fill="black"/>
<path d="M314.961 14.9616C393.391 14.9617 461.113 28.343 516.239 54.7129C554.45 72.9876 599.985 104.553 599.985 151.085C599.985 197.618 554.45 229.198 516.239 247.473C461.113 273.843 393.391 287.209 314.961 287.209C236.53 287.209 168.793 273.843 113.667 247.473C75.4716 229.198 29.9359 197.633 29.9359 151.085C29.9359 104.538 75.4716 72.9875 113.667 54.7129C168.793 28.3429 236.515 14.9616 314.961 14.9616ZM314.961 285.699C393.164 285.699 460.66 272.378 515.59 246.099C553.347 227.975 598.475 196.848 598.475 151.085C598.475 105.323 553.408 74.1505 515.529 56.0268C460.599 29.7475 393.104 16.4266 314.9 16.4266C236.697 16.4266 169.186 29.7475 114.256 56.0268C76.4986 74.1505 31.3858 105.278 31.3858 151.04C31.3858 196.802 76.4533 227.975 114.256 246.053C169.246 272.378 236.757 285.699 314.961 285.699Z" fill="black"/>
<path d="M314.961 22.0902C389.811 22.0903 453.999 34.7466 505.757 59.712C541.914 77.1711 585.003 107.151 585.003 151.085C585.003 195.02 541.899 225.09 505.742 242.474C453.984 267.424 389.796 280.081 314.946 280.081C240.593 280.081 176.405 267.424 124.134 242.474C58.6318 211.18 44.8729 175.507 44.8729 151.085C44.8729 126.664 58.6318 90.9903 124.134 59.7119C176.42 34.7466 240.654 22.0902 314.961 22.0902ZM314.961 278.57C389.585 278.57 453.561 265.974 505.108 241.115C540.872 223.867 583.493 194.235 583.493 151.085C583.493 107.936 540.857 78.3189 505.093 61.0712C453.531 36.2116 389.57 23.6006 314.946 23.6006C240.82 23.6006 176.843 36.2116 124.783 61.0712C59.991 92.0173 46.3832 127.102 46.3832 151.085C46.3832 175.069 59.9759 210.169 124.783 241.115C176.858 265.959 240.835 278.57 314.961 278.57Z" fill="black"/>
<path d="M314.961 29.2188C355.241 29.2188 416.71 35.109 468.438 51.6619C498.901 61.4034 522.915 73.8634 539.845 88.6795C559.887 106.244 570.051 127.238 570.051 151.085C570.051 174.933 559.887 195.941 539.845 213.491C522.915 228.307 498.901 240.767 468.438 250.509C416.71 267.122 355.241 272.967 314.961 272.967C274.681 272.967 213.015 267.228 161.952 251.113C94.1994 229.757 59.8551 196.092 59.8551 151.085C59.8551 106.078 94.1994 72.4286 161.952 51.0578C213 34.8824 274.469 29.2188 314.961 29.2188ZM314.961 271.457C355.12 271.457 416.423 265.566 467.985 249.074C534.71 227.718 568.541 194.703 568.541 151.085C568.541 107.468 534.71 74.4525 467.985 53.0967C416.423 36.6042 355.12 30.7291 314.961 30.7291C274.575 30.7291 213.302 36.4381 162.42 52.4926C95.3775 73.6369 61.3805 106.864 61.3805 151.085C61.3805 195.307 95.3775 228.534 162.42 249.678C213.302 265.733 274.575 271.457 314.961 271.457Z" fill="black"/>
<path d="M314.961 36.3928C352.945 36.3928 410.88 41.9658 459.587 57.537C523.02 77.8658 555.099 109.34 555.099 151.176C555.099 193.011 522.96 224.441 459.587 244.815C410.88 260.431 352.945 265.959 314.961 265.959C276.977 265.959 218.86 260.552 170.817 245.389C107.113 225.271 74.8071 193.585 74.8071 151.206C74.8071 108.827 107.113 77.2012 170.817 57.0235C218.86 41.7392 276.78 36.3928 314.961 36.3928ZM314.961 264.449C352.824 264.449 410.593 258.906 459.119 243.305C521.797 223.202 553.589 192.211 553.589 151.176C553.589 110.141 521.872 79.1344 459.119 59.0473C410.593 43.4912 352.824 37.9031 314.961 37.9031C277.097 37.9031 219.162 43.2948 171.27 58.413C108.275 78.3037 76.3174 109.507 76.3174 151.146C76.3174 192.785 108.275 224.003 171.27 243.894C219.162 258.936 276.901 264.328 314.961 264.328L314.961 264.449Z" fill="black"/>
<path d="M314.961 43.4609C350.513 43.4609 404.794 48.6866 450.51 63.3517C509.986 82.4268 540.132 111.908 540.132 151.085C540.132 190.263 509.926 219.759 450.51 238.819C404.794 253.484 350.513 258.71 314.961 258.71C279.408 258.71 224.931 253.65 179.864 239.423C120.086 220.559 89.7742 190.836 89.7742 151.085C89.7742 111.334 120.086 81.6112 179.864 62.7475C224.931 48.4752 279.197 43.4609 314.961 43.4609ZM314.961 257.199C350.392 257.199 404.491 252.004 450.057 237.384C508.823 218.535 538.622 189.507 538.622 151.085C538.622 112.663 508.823 83.635 450.057 64.7864C404.491 50.1818 350.377 44.9712 314.961 44.9712C279.544 44.9712 225.233 49.9854 180.241 64.1974C121.173 82.8346 91.2089 112.074 91.2089 151.085C91.2089 190.096 121.249 219.336 180.241 237.988C225.233 252.155 279.317 257.199 314.961 257.199Z" fill="black"/>
<path d="M314.961 50.5897C348.187 50.5897 398.934 55.4529 441.539 69.106C497.043 86.8974 525.18 114.415 525.18 151.085C525.18 187.756 497.013 215.077 441.464 232.929C398.632 246.688 348.036 251.581 314.961 251.581C281.885 251.581 231.154 246.688 188.367 232.929C132.878 215.092 104.741 187.62 104.741 151.085C104.741 114.551 132.848 86.8823 188.291 69.106C230.852 55.4529 281.628 50.5897 314.961 50.5897ZM314.961 250.071C347.916 250.071 398.345 245.192 440.996 231.479C495.85 213.854 523.67 186.804 523.67 151.085C523.67 72.7912 387.138 52.1 314.961 52.1C242.783 52.1 106.237 72.7911 106.237 151.085C106.237 186.834 134.011 213.884 188.82 231.494C231.441 245.192 281.93 250.071 314.961 250.071Z" fill="black"/>
<path d="M314.961 57.7184C346.148 57.7184 393.572 62.2494 433.142 75.0568C484.281 91.5795 510.168 117.164 510.168 151.086C510.168 227.688 369.226 244.468 314.915 244.468C285.691 244.468 237.346 239.861 197.263 226.873C145.761 210.259 119.648 184.705 119.648 151.085C119.648 116.847 145.655 91.1717 196.93 74.7396C236.123 62.189 283.637 57.7184 314.961 57.7184ZM314.961 242.957C368.848 242.957 508.703 226.45 508.703 151.086C508.703 78.4247 381.973 59.2287 314.961 59.2287C283.743 59.2287 236.425 63.6841 197.444 76.1895C146.864 92.3799 121.204 117.587 121.204 151.085C121.204 183.98 146.969 208.991 197.761 225.438C237.633 238.366 285.842 242.957 314.961 242.957Z" fill="black"/>
<path d="M314.961 64.8319C343.536 64.8319 386.927 68.8947 423.023 80.2824C470.945 95.3854 495.246 119.218 495.246 151.085C495.246 182.953 470.96 206.846 423.038 221.934C387.017 233.291 343.581 237.339 314.961 237.339C286.34 237.339 242.889 233.291 206.868 221.934C158.961 206.831 134.66 182.998 134.66 151.085C134.66 119.173 158.961 95.4005 206.898 80.2824C242.98 68.8947 286.371 64.8319 314.961 64.8319ZM314.961 235.829C343.475 235.829 386.73 231.796 422.585 220.499C469.797 205.623 493.735 182.273 493.735 151.025C493.735 119.777 469.797 96.5635 422.57 81.6568C386.64 70.3295 343.415 66.2819 314.961 66.2819C286.507 66.2819 243.266 70.3295 207.351 81.6567C160.124 96.5634 136.171 119.898 136.171 151.025C136.171 182.152 160.109 205.562 207.321 220.499C243.176 231.796 286.431 235.753 314.961 235.753L314.961 235.829Z" fill="black"/>
<path d="M314.961 71.9604C351.419 71.9604 480.294 90.9148 480.294 151.085C480.294 203.599 424.669 230.21 314.961 230.21C205.252 230.21 149.628 203.599 149.628 151.085C149.628 90.9148 278.502 71.9604 314.961 71.9604ZM314.961 228.7C423.703 228.7 478.783 202.587 478.783 151.085C478.783 92.0626 351.087 73.4707 314.961 73.4707C278.834 73.4707 151.138 92.0626 151.138 151.085C151.138 202.526 206.249 228.7 314.961 228.7Z" fill="black"/>
<path d="M314.961 81.5209C345.242 81.5209 376.702 96.624 407.089 111.214C411.62 113.419 416.287 115.624 420.863 117.768C423.536 119.022 426.738 120.29 430.121 121.635C445.058 127.555 465.508 135.665 465.281 153.351C465.025 173.181 458.893 189.07 447.052 200.578C419.866 227.039 367.685 226.253 329.611 225.71C324.4 225.71 319.492 225.559 314.915 225.559C310.702 225.559 306.186 225.559 301.428 225.679C262.462 226.133 209.103 226.782 181.858 199.793C170.304 188.345 164.489 172.728 164.534 153.336C164.534 135.952 184.168 128.038 199.86 121.619C203.168 120.29 206.294 119.022 208.922 117.783C213.453 115.639 217.984 113.434 222.636 111.244C253.189 96.6239 284.709 81.5209 314.961 81.5209ZM347.659 224.335C382.592 224.335 423.325 221.541 446.04 199.446C457.579 188.224 463.56 172.698 463.816 153.291C464.028 136.677 444.953 129.126 429.608 123.084C426.195 121.74 422.978 120.457 420.274 119.188C415.743 117.028 411.076 114.823 406.485 112.618C376.204 98.089 344.895 83.0765 314.961 83.0765C285.026 83.0765 253.688 98.104 223.361 112.648C218.779 114.853 214.208 117.033 209.647 119.188C206.944 120.457 203.802 121.725 200.48 123.069C185.18 129.262 166.135 136.964 166.09 153.275C166.09 172.245 171.708 187.514 182.96 198.66C209.768 225.211 262.765 224.577 301.459 224.109C306.216 224.109 310.732 223.988 314.961 223.988C319.492 223.988 324.46 224.063 329.671 224.139C335.395 224.245 341.436 224.335 347.659 224.335Z" fill="black"/>
<path d="M314.961 104.13C336.785 104.13 362.867 117.255 388.09 129.956C395.505 133.687 403.193 137.508 410.518 140.951C413.1 142.16 416.332 143.383 419.761 144.682C433.066 149.711 449.635 155.979 450.359 168.439C451.356 185.43 446.901 199.249 437.114 209.519C412.949 234.832 360.693 234.303 326.076 233.956C322.15 233.956 318.434 233.88 314.961 233.88C311.487 233.88 308.179 233.88 304.494 233.88C269.546 234.182 216.73 234.651 192.55 209.126C182.869 198.887 178.489 185.188 179.547 168.348C180.332 155.798 196.719 149.636 209.874 144.682C213.408 143.368 216.73 142.114 219.404 140.861C226.472 137.568 233.933 133.823 241.137 130.198C266.721 117.421 293.167 104.13 314.961 104.13ZM339.503 232.506C372.805 232.506 415.26 230.225 436.012 208.447C445.496 198.479 449.816 185.052 448.849 168.499C448.185 157.021 432.13 150.934 419.232 146.056C415.773 144.757 412.511 143.519 409.868 142.295C402.513 138.882 394.841 135.016 387.41 131.27C362.354 118.659 336.437 105.595 314.915 105.595C293.393 105.595 267.19 118.81 241.771 131.587C234.552 135.227 227.091 138.973 219.993 142.28C217.259 143.549 213.951 144.803 210.372 146.147C197.61 150.934 181.676 156.915 181.012 168.484C179.97 184.856 184.214 198.177 193.608 208.099C217.319 233.155 269.742 232.687 304.434 232.385C308.119 232.385 311.623 232.385 314.915 232.385C318.208 232.385 322.119 232.385 326.046 232.461C330.335 232.491 334.821 232.536 339.503 232.536L339.503 232.506Z" fill="black"/>
<path d="M314.961 138.369C334.444 138.369 359.031 150.451 382.804 162.186C388.754 165.116 394.372 167.88 399.93 170.478C402.12 171.49 404.688 172.547 407.406 173.649C419.262 178.482 434.018 184.493 435.392 195.352C437.129 208.945 434.048 220.348 426.24 229.198C404.325 254.043 351.057 253.877 319.19 253.877L311.442 253.877C279.725 253.877 226.623 253.982 204.406 229.38C196.402 220.529 193.064 209.081 194.484 195.383C195.601 184.478 210.281 178.573 222.077 173.815C224.931 172.652 227.635 171.565 229.946 170.493C235.534 167.88 241.182 165.101 247.163 162.156C270.86 150.451 295.448 138.369 314.961 138.369ZM324.355 252.366C356.252 252.366 404.763 251.264 425.107 228.201C432.659 219.683 435.574 208.703 433.897 195.534C432.628 185.566 418.326 179.736 406.848 175.054C404.099 173.936 401.501 172.879 399.296 171.852C393.723 169.254 388.09 166.475 382.139 163.545C358.518 151.901 334.081 139.879 314.961 139.879C295.84 139.879 271.434 151.961 247.873 163.5C241.832 166.445 236.228 169.239 230.625 171.852C228.269 172.939 225.551 174.042 222.666 175.19C211.248 179.721 196.991 185.535 196.009 195.518C194.65 208.779 197.852 219.819 205.554 228.353C227.318 252.457 279.922 252.366 311.472 252.366L324.355 252.366Z" fill="black"/>
<path d="M314.961 181.095C334.413 181.095 418.794 204.112 420.44 230.935C421.15 242.504 417.843 252.261 410.638 259.933C389.494 282.316 339.171 282.316 314.961 282.316C288.908 282.316 240.412 282.316 219.389 260.039C212.139 252.351 208.816 242.565 209.466 230.935C211.097 202.904 294.194 181.095 314.961 181.095ZM314.961 280.775C338.959 280.775 388.966 280.775 409.536 258.876C416.453 251.521 419.61 242.142 418.93 230.996C417.42 204.898 334.142 182.545 314.961 182.545C295.13 182.545 212.517 204.309 210.976 230.996L210.221 230.996L210.976 230.996C210.327 242.187 213.529 251.611 220.476 258.967C241.061 280.836 290.977 280.836 314.961 280.836L314.961 280.775Z" fill="black"/>
<path d="M314.961 229.213C335.455 229.213 403.751 242.549 405.473 272C405.811 276.194 405.255 280.412 403.841 284.374C402.427 288.337 400.188 291.954 397.272 294.987C388.21 304.683 366.447 316.222 314.961 316.222C263.474 316.222 241.771 304.668 232.634 294.987C229.718 291.954 227.479 288.337 226.065 284.374C224.652 280.412 224.095 276.194 224.433 272C226.17 242.549 294.451 229.213 314.961 229.213ZM314.961 314.712C337.978 314.712 379.149 312.008 396.17 293.96C398.944 291.075 401.075 287.634 402.421 283.864C403.767 280.094 404.298 276.081 403.978 272.091C402.377 244.905 337.207 230.724 314.961 230.724C292.714 230.724 227.529 244.951 225.943 272.091C225.621 276.08 226.15 280.092 227.493 283.862C228.836 287.632 230.964 291.074 233.736 293.96C250.773 312.008 291.928 314.712 314.961 314.712Z" fill="black"/>
<path d="M314.961 279.552C328.735 279.552 367.972 283.086 383.785 299.261C385.958 301.338 387.678 303.842 388.837 306.615C389.996 309.388 390.57 312.371 390.521 315.376C389.857 345.673 335.742 352.303 315.006 352.303C294.27 352.303 240.095 345.673 239.491 315.376C239.446 312.372 240.021 309.39 241.18 306.617C242.339 303.845 244.057 301.341 246.227 299.261C261.934 283.131 301.172 279.552 314.961 279.552ZM314.961 350.793C330.043 350.673 345.027 348.353 359.439 343.906C378.786 337.502 388.739 327.897 389.011 315.346C389.053 312.543 388.516 309.76 387.432 307.174C386.348 304.588 384.742 302.254 382.713 300.319C367.247 284.566 328.553 281.062 314.961 281.062C301.368 281.062 262.659 284.521 247.193 300.319C245.168 302.256 243.563 304.591 242.479 307.176C241.396 309.762 240.856 312.543 240.895 315.346C241.182 327.897 251.135 337.502 270.482 343.906C284.892 348.37 299.876 350.706 314.961 350.838L314.961 350.793Z" fill="black"/>
<path d="M314.1 329.105L314.961 329.105C325.941 329.256 359.938 332.73 371.718 346.262C373.181 347.822 374.282 349.685 374.945 351.718C375.608 353.751 375.816 355.905 375.554 358.027C374.27 368.358 361.297 375.547 350.649 379.761C337.238 385.077 322.754 387.554 314.961 387.614C300.19 387.75 256.497 377.722 254.352 358.012C254.093 355.675 254.354 353.309 255.117 351.085C255.879 348.86 257.124 346.832 258.762 345.144C270.784 331.944 302.576 329.105 314.1 329.105ZM314.659 386.104L314.915 386.104C322.573 386.104 336.83 383.597 350.06 378.356C364.589 372.617 373.092 365.322 374.029 357.831C374.252 355.922 374.057 353.988 373.457 352.162C372.858 350.336 371.867 348.663 370.555 347.259C359.983 335.176 328.508 330.827 314.915 330.646C301.715 330.479 270.935 334.029 259.85 346.202C258.362 347.732 257.231 349.572 256.536 351.59C255.842 353.608 255.601 355.755 255.832 357.876C256.678 365.669 265.287 373.1 280.073 378.794C292.653 383.612 306.911 386.104 314.659 386.104Z" fill="black"/>
<path d="M316.38 374.611C327.375 374.611 349.607 378.175 357.657 387.297C358.827 388.519 359.7 389.993 360.208 391.607C360.717 393.22 360.846 394.929 360.587 396.601C358.503 409.65 325.125 418.893 314.961 418.893C304.796 418.893 271.388 409.65 269.349 396.601C269.084 394.994 269.176 393.349 269.62 391.783C270.064 390.216 270.848 388.767 271.917 387.539C279.635 378.205 302.606 375.018 314.961 374.626L316.38 374.611ZM314.961 417.382C326.137 417.382 357.249 407.837 359.092 396.359C359.317 394.908 359.203 393.424 358.758 392.024C358.312 390.625 357.547 389.348 356.524 388.294C348.444 379.126 325.125 375.819 314.976 376.211C302.893 376.604 280.42 379.655 273.05 388.566C272.122 389.63 271.441 390.885 271.054 392.243C270.668 393.6 270.586 395.026 270.814 396.419C272.627 407.837 303.769 417.382 314.961 417.382Z" fill="black"/>
<path d="M314.961 413.063C322.15 413.063 345.635 414.12 345.635 427.924C345.635 433.679 328.493 443.027 314.961 443.027C301.428 443.027 284.271 433.633 284.271 427.924C284.271 414.12 307.757 413.063 314.961 413.063ZM314.961 441.562C328.871 441.562 344.125 431.987 344.125 427.97C344.125 415.57 321.802 414.619 314.961 414.619C308.119 414.619 285.782 415.57 285.782 427.97C285.782 431.987 301.066 441.562 314.961 441.562Z" fill="black"/>
<path d="M314.961 441.245C322.21 441.245 330.668 443.299 330.668 449.084C330.668 452.708 322.15 457.013 314.961 457.013C307.772 457.013 299.238 452.708 299.238 449.084C299.238 443.299 307.711 441.245 314.961 441.245ZM314.961 455.502C322.286 455.502 329.158 451.092 329.158 449.084C329.158 444.719 322.029 442.755 314.961 442.755C307.892 442.755 300.749 444.719 300.749 449.084C300.749 451.092 307.621 455.502 314.961 455.502Z" fill="black"/>
<path d="M314.206 456.847L315.716 456.847L315.716 1.47455L314.206 1.47455L314.206 456.847Z" fill="black"/>
<path d="M218.482 8.36175C223.013 14.992 227.937 21.6071 233.147 28.5998C246.227 46.1345 259.759 64.2732 267.114 83.3937C280.707 118.554 283.244 160.631 285.751 201.318C286.627 215.56 287.458 229.017 288.772 241.976C290.63 260.855 291.672 280.7 292.774 301.708C295.568 355.4 298.468 410.918 315.686 456.575L314.281 457.104C296.973 411.236 294.073 355.596 291.264 301.799C290.161 280.806 289.134 261.021 287.262 242.127C285.978 229.138 285.147 215.666 284.241 201.349C281.734 160.782 279.151 118.81 265.71 83.877C258.415 64.9378 244.958 46.8896 231.939 29.506C226.714 22.4982 221.775 15.9133 217.244 9.22265L218.482 8.36175Z" fill="black"/>
<path d="M130.688 29.4153C137.847 34.0973 145.791 38.7339 154.234 43.6273C180.393 58.8512 210.115 76.0989 223.285 100.672C243.191 137.644 251.498 181.775 259.533 224.441C261.179 233.155 262.719 241.387 264.381 249.618C267.884 266.986 271.298 284.687 274.59 301.799C277.958 319.333 281.447 337.457 285.042 355.248C286.295 361.456 287.428 367.995 288.621 374.882C293.514 403.095 299.012 435.113 315.55 456.379L314.357 457.3C297.592 435.687 292.034 403.533 287.171 375.169C285.978 368.267 284.86 361.728 283.607 355.535C280.012 337.729 276.523 319.605 273.14 302.071C269.848 284.959 266.45 267.334 262.946 249.905C261.284 241.658 259.744 233.427 258.098 224.713C250.063 182.152 241.771 138.142 221.986 101.366C208.968 77.2014 179.501 60.0443 153.494 44.9262C145.051 40.0177 137.077 35.3659 129.888 30.6689L130.688 29.4153Z" fill="black"/>
<path d="M61.018 62.4305C70.4272 65.6928 81.3316 68.6983 92.8704 71.8851C128.136 81.6265 168.114 92.6669 188.442 116.545C216.006 148.926 229.221 198.539 240.774 242.323C243.04 250.856 245.185 258.936 247.375 266.624C251.256 280.307 255.062 294.262 258.747 307.764C263.927 326.704 269.319 346.292 274.922 365.443C276.433 370.427 277.807 375.834 279.317 381.558C286.22 407.792 294.813 440.46 315.414 456.243L314.492 457.436C293.484 441.321 284.815 408.396 277.852 381.92C276.342 376.211 274.938 370.82 273.473 365.866C267.824 346.7 262.462 327.096 257.297 308.142C253.612 294.655 249.746 280.7 245.91 267.016C243.735 259.314 241.59 251.249 239.309 242.685C227.741 199.068 214.631 149.636 187.28 117.511C167.268 93.9808 127.532 83.016 92.4777 73.3349C80.9088 70.1331 69.9742 67.1125 60.5197 63.8502L61.018 62.4305Z" fill="black"/>
<path d="M16.2526 104.115L99.3194 116.952C104.47 117.753 110.209 118.312 116.265 118.916C133.603 120.623 153.252 122.571 166.014 130.862C197.414 151.236 212.834 202.39 225.113 243.486C227.771 252.321 230.278 260.673 232.74 267.983C237.271 281.259 241.62 294.806 245.894 307.9C252.389 327.806 259.094 348.407 266.148 368.509C267.658 372.572 269.032 377.042 270.573 381.769C279.635 409.544 290.811 444.115 315.353 456.167L314.689 457.526C289.572 445.187 278.23 410.284 269.123 382.222C267.613 377.51 266.102 373.055 264.728 369.007C257.66 348.89 250.954 328.229 244.46 308.369C240.185 295.274 235.775 281.727 231.305 268.466C228.828 261.126 226.321 252.774 223.663 243.924C211.399 203.055 196.13 152.203 165.199 132.161C152.739 124.081 133.286 122.163 116.114 120.456C110.073 119.867 104.288 119.293 99.0777 118.493L16.011 105.64L16.2526 104.115Z" fill="black"/>
<path d="M136.443 147.868C143.707 147.695 150.961 148.534 157.995 150.36C194.151 160.933 212.169 222.961 224.086 264.041C226.729 273.178 229.024 281.092 231.184 287.33C232.996 292.541 234.779 297.751 236.576 302.962C246.332 331.37 256.436 360.761 267.99 389.049C269.183 392.07 270.407 395.09 271.66 398.413C280.42 421.067 291.294 449.189 315.097 456.122L314.674 457.632C290.177 450.503 279.136 421.943 270.256 399.017C269.002 395.77 267.794 392.628 266.586 389.683C255.017 361.35 244.913 331.944 235.141 303.596C233.359 298.38 231.567 293.17 229.764 287.964C227.59 281.681 225.233 273.767 222.636 264.6C210.81 223.822 192.928 162.231 157.572 151.961C144.764 148.231 128.091 149.545 111.976 150.829C104.424 151.418 97.3258 151.976 90.9825 151.976L0.681332 151.976L0.681332 150.466L91.058 150.466C97.3409 150.466 104.424 149.907 111.93 149.318C120.177 148.533 128.559 147.868 136.443 147.868Z" fill="black"/>
<path d="M152.286 174.42C156.87 174.309 161.44 174.973 165.803 176.383C198.139 187.967 216.262 243.35 228.254 279.99C230.791 287.738 233.178 295.093 235.352 300.877C239.174 311.117 242.904 321.599 246.544 331.748C254.805 354.916 263.369 378.87 273.397 401.645C274.454 404.072 275.532 406.589 276.629 409.196C284.483 427.894 294.269 451.168 315.127 456.016L314.779 457.526C293.182 452.467 283.229 428.83 275.24 409.77C274.137 407.173 273.065 404.635 272.008 402.219C261.964 379.383 253.401 355.399 245.109 332.201C241.499 322.067 237.754 311.585 233.948 301.361C231.758 295.501 229.417 288.176 226.819 280.413C214.918 244.06 196.93 189.1 165.289 177.712C152.346 173.06 131.021 177.984 113.939 181.926C107.581 183.436 101.57 184.765 96.6159 185.535L16.2526 197.995L16.026 196.485L96.3289 184.055C101.222 183.3 107.203 181.926 113.531 180.461C125.795 177.742 140.173 174.42 152.286 174.42Z" fill="black"/>
<path d="M171.059 201.439C176.972 201.246 182.846 202.457 188.201 204.973C218.014 220.303 233.268 268.738 244.399 304.094C246.483 310.725 248.462 316.977 250.32 322.339C252.736 329.301 255.273 338.952 258.234 350.144C268.806 390.152 284.724 450.624 315.097 456.107L314.825 457.617C283.516 451.968 267.416 390.937 256.769 350.551C253.824 339.405 251.286 329.77 248.885 322.867C247.027 317.491 245.049 311.223 242.964 304.593C231.909 269.478 216.776 221.39 187.521 206.347C165.471 195.035 120.388 214.609 87.4635 228.911C77.0423 233.442 68.056 237.339 61.018 239.77L60.5196 238.351C67.4972 235.934 76.4684 232.038 86.8593 227.522C113.033 216.119 146.818 201.439 171.059 201.439Z" fill="black"/>
<path d="M215.658 220.65C218.14 220.612 220.604 221.069 222.908 221.994C246.302 231.811 257.826 284.37 264.713 315.769C266.223 322.686 267.537 328.637 268.715 333.032C270.558 339.964 272.264 349.026 274.228 359.598C280.949 395.604 290.146 444.885 315.263 456.258L314.643 457.632C288.802 446.018 279.529 396.283 272.748 359.961C270.784 349.388 269.093 340.327 267.25 333.515C266.072 329.09 264.758 323.109 263.233 316.192C256.421 285.065 244.988 232.989 222.319 223.489C205.146 216.285 170.515 242.821 147.604 260.386C140.868 265.551 135.038 270.022 130.688 272.861L129.858 271.608C134.162 268.783 139.977 264.328 146.682 259.178C168.25 242.534 196.855 220.65 215.658 220.65Z" fill="black"/>
<path d="M265.997 227.31C266.187 227.287 266.38 227.287 266.57 227.31C280.163 230.195 286.491 284.204 290.509 330.932C290.932 335.811 291.234 339.33 291.445 340.825C292.684 349.811 293.439 359.598 294.254 369.944C296.61 400.15 299.269 434.479 315.565 456.333L314.357 457.239C297.743 435.023 295.115 400.512 292.744 370.064C291.944 359.734 291.234 349.977 289.95 341.036C289.739 339.526 289.421 335.962 288.999 331.053C286.899 306.511 280.465 231.811 266.253 228.791C259.276 227.28 234.673 267.469 224.176 284.672C221.458 289.112 219.509 292.223 218.482 293.734L217.244 292.873C218.241 291.362 220.265 288.07 222.877 283.811C240.926 254.436 258.581 227.31 265.997 227.31Z" fill="black"/>
<path d="M314.206 456.847L315.716 456.847L315.716 226.238L314.206 226.238L314.206 456.847Z" fill="black"/>
<path d="M363.925 227.31C371.476 227.31 389.6 255.674 406.062 282.406C409.083 287.254 411.394 291.076 412.677 292.979L411.424 293.839C410.125 291.936 407.769 288.1 404.778 283.267C394.508 266.563 370.464 227.386 363.653 228.896C350.679 231.66 346.934 277.09 344.91 301.497C344.412 307.689 344.004 312.582 343.566 315.648C342.056 326.809 341.134 339.451 340.228 352.847C337.736 389.653 334.897 431.383 315.565 457.345L314.357 456.439C333.417 430.764 336.241 389.351 338.718 352.741C339.624 339.33 340.485 326.658 342.071 315.437C342.494 312.416 342.901 307.538 343.415 301.376C345.605 274.84 349.275 230.391 363.351 227.371C363.539 227.328 363.732 227.307 363.925 227.31Z" fill="black"/>
<path d="M414.097 220.65C432.764 220.65 461.551 242.595 483.269 259.148C489.975 264.253 495.759 268.663 500.049 271.487L499.218 272.74C494.883 269.901 489.069 265.476 482.348 260.356C459.316 242.791 424.503 216.24 407.588 223.369C387.289 231.917 377.261 274.9 371.265 300.575C370.011 305.997 368.909 310.664 367.912 314.334C364.348 327.247 360.889 340.402 357.536 353.134C353.836 367.195 349.985 381.724 346.043 395.966C345.182 398.987 344.336 402.596 343.445 406.342C339.005 425.04 332.873 450.639 315.233 457.526L314.674 456.122C331.619 449.522 337.6 424.405 341.98 405.995C342.871 402.234 343.717 398.67 344.593 395.558C348.55 381.316 352.371 366.863 356.071 352.756C359.424 340.025 362.898 326.855 366.447 313.942C367.459 310.302 368.546 305.635 369.8 300.243C376.249 272.589 386.005 230.769 406.999 221.964C409.255 221.061 411.667 220.615 414.097 220.65Z" fill="black"/>
<path d="M458.772 201.454C482.937 201.454 516.919 216.164 543.198 227.567C553.544 232.098 562.469 235.919 569.387 238.321L568.903 239.74C561.926 237.324 552.97 233.442 542.594 228.942C509.548 214.624 464.3 194.99 442.4 206.287C415.985 219.88 401.879 262.017 391.578 292.737C389.932 297.691 388.361 302.357 386.881 306.481C384.495 313.141 381.686 323.26 378.424 334.995C365.782 380.501 346.707 449.265 315.142 457.541L314.764 456.031C345.469 447.981 364.423 379.715 376.974 334.542C380.236 322.792 383.015 312.643 385.462 305.937C386.972 301.814 388.482 297.147 390.159 292.208C400.535 261.247 414.746 218.838 441.705 204.897C447.04 202.411 452.89 201.23 458.772 201.454Z" fill="black"/>
<path d="M478.194 174.495C490.035 174.495 503.281 177.516 515.378 180.355C521.903 181.865 528.08 183.376 533.502 184.146L613.805 196.576L613.578 198.086L533.275 185.656C527.717 184.795 521.525 183.361 514.955 181.85C497.949 177.908 478.708 173.453 464.511 177.833C434.018 187.287 413.72 248.319 401.592 284.778C399.417 291.347 397.529 297.026 395.898 301.391C393.149 308.822 390.083 319.077 386.534 330.948C372.458 377.994 351.178 449.084 315.051 457.556L314.704 456.046C349.985 447.77 371.099 377.178 385.084 330.464C388.633 318.563 391.714 308.293 394.478 300.832C396.094 296.452 397.982 290.789 400.157 284.219C412.39 247.473 432.84 186.049 464.058 176.307C468.652 174.994 473.418 174.383 478.194 174.495Z" fill="black"/>
<path d="M495.17 147.702C504.232 147.702 513.792 148.442 522.779 149.122C530.798 149.756 538.395 150.33 544.738 150.33L629.149 150.33L629.149 151.841L544.738 151.841C538.335 151.841 530.723 151.252 522.658 150.632C505.304 149.303 485.625 147.778 472.274 151.81C439.334 161.763 424.141 211.89 413.055 248.47C410.578 256.656 408.237 264.388 405.956 270.762C401.32 283.781 396.759 297.086 392.364 310.03C385.16 331.053 377.699 352.802 369.709 373.946C368.425 377.314 367.096 381.044 365.692 385.001C355.996 412.187 342.705 449.612 315.217 457.617L314.794 456.106C341.527 448.313 354.682 411.401 364.272 384.443C365.677 380.47 367.021 376.725 368.289 373.357C376.309 352.213 383.755 330.494 390.944 309.486C395.354 296.618 399.915 283.297 404.537 270.218C406.802 263.875 409.143 256.157 411.62 247.971C422.796 211.044 438.126 160.479 471.836 150.3C479.452 148.334 487.308 147.459 495.17 147.702Z" fill="black"/>
<path d="M613.699 104.115L613.925 105.625L530.859 118.478C525.422 119.308 519.547 119.882 513.309 120.471C496.499 122.087 477.439 123.915 464.738 132.161C434.35 151.871 417.722 206.514 405.579 246.401C403.117 254.435 400.806 262.032 398.632 268.496C394.101 281.757 389.751 295.289 385.492 308.384C378.998 328.304 372.277 348.92 365.208 369.037C363.789 373.085 362.339 377.54 360.813 382.253C351.752 410.314 340.379 445.217 315.263 457.556L314.598 456.197C339.141 444.115 350.362 409.574 359.379 381.799C360.889 377.072 362.399 372.602 363.789 368.539C370.842 348.437 377.563 327.761 384.057 307.915C388.316 294.821 392.741 281.289 397.212 268.013C399.372 261.579 401.743 253.997 404.129 245.963C416.347 205.849 433.066 150.904 463.922 130.893C476.926 122.45 496.182 120.592 513.173 118.976C519.38 118.372 525.255 117.813 530.632 116.983L613.699 104.115Z" fill="black"/>
<path d="M568.903 62.4305L569.387 63.8654C559.932 67.1276 549.013 70.1482 537.444 73.3501C502.359 83.0613 462.608 94.0564 442.627 117.526C415.064 149.907 402.181 198.705 390.823 241.764C388.482 250.63 386.292 258.997 383.997 267.032C380.115 280.624 376.309 294.61 372.639 308.082C367.459 327.066 362.067 346.685 356.434 365.881C354.923 370.835 353.549 376.227 352.054 381.936C345.091 408.396 336.422 441.321 315.414 457.451L314.492 456.258C335.093 440.46 343.687 407.807 350.589 381.573C352.099 375.849 353.519 370.442 354.984 365.458C360.647 346.292 366.009 326.673 371.174 307.704C374.859 294.232 378.726 280.292 382.547 266.639C384.827 258.604 387.078 250.252 389.358 241.387C400.761 198.177 413.689 149.258 441.479 116.56C461.747 92.7424 501.755 81.6718 537.051 71.9152C548.59 68.6983 559.494 65.6928 568.903 62.4305Z" fill="black"/>
<path d="M499.218 29.4153L500.049 30.684C492.95 35.3357 485.036 39.9421 476.669 44.8204C450.586 60.0594 420.909 77.3373 407.965 101.336C388.331 137.931 379.843 182.424 371.718 225.468C370.117 233.941 368.607 241.93 367.006 249.874C363.502 267.243 360.104 284.944 356.811 302.071C353.428 319.59 349.939 337.714 346.345 355.505C345.106 361.682 343.974 368.222 342.78 375.139C337.887 403.503 332.344 435.657 315.595 457.27L314.402 456.348C330.894 435.113 336.422 403.095 341.285 374.913C342.478 367.995 343.596 361.456 344.85 355.279C348.444 337.502 351.933 319.379 355.301 301.859C358.593 284.732 362.007 267.032 365.511 249.648C367.112 241.719 368.622 233.729 370.223 225.272C378.001 184.116 386.836 137.493 406.636 100.702C419.776 76.2801 449.589 58.8814 475.899 43.5518C484.266 38.6433 492.15 34.0369 499.218 29.4153Z" fill="black"/>
<path d="M411.424 8.36176L412.677 9.22266C408.146 15.8378 403.223 22.4529 398.012 29.4607C384.963 46.95 371.476 65.0586 364.212 83.9374C350.921 118.478 348.097 163.138 345.62 202.527C344.729 216.497 343.898 229.712 342.675 242.127C340.817 260.975 339.775 280.806 338.672 301.799C335.863 355.596 332.963 411.236 315.655 457.104L314.251 456.575C331.468 410.918 334.368 355.384 337.177 301.708C338.265 280.7 339.307 260.93 341.164 241.976C342.403 229.561 343.234 216.391 344.11 202.436C346.602 162.926 349.426 118.146 362.792 83.3937C370.132 64.3185 383.695 46.1345 396.789 28.5545C402 21.5618 406.923 14.9618 411.424 8.36176Z" fill="black"/>
</svg>
