<svg width="2519" height="981" viewBox="0 0 2519 981" fill="none" xmlns="http://www.w3.org/2000/svg">
<path d="M1527.05 585.424C1528.38 585.881 1529.71 586.348 1531.03 586.827C1563.4 600.36 1640.79 677.19 1694.98 705.704C1763.25 741.623 1843.72 787.442 1911.24 718.592C1952.26 676.768 1979.3 613.124 1984.72 528.953C1993.2 397.517 1931.12 262.655 1879.61 180.974C1834.08 108.756 1772.29 71.9303 1714.14 41.5057C1655.19 10.6595 1589.89 2.52637 1528.59 0.309814C1414.23 -3.82593 1307.89 33.6771 1200.41 99.5023C1158.41 125.227 1125.26 165.539 1095.43 224.011C1078.29 257.611 1061.23 314.98 1058.03 360.487C1051.89 447.802 1074.52 538.531 1123.64 570.839C1152.22 589.632 1185.8 585.904 1215.76 583.957C1253.98 581.475 1291.34 568.419 1329.14 559.332C1382.96 546.39 1441.35 560.91 1494.48 575.672L1495.09 575.842C1505.63 578.772 1516.38 581.756 1527.05 585.424Z" fill="#BBAD99"/>
<path d="M2243.17 473.217C2257.36 442.527 2281.21 418.26 2308.05 398.418C2315.3 389.761 2322.7 381.154 2331.34 374.021C2348.5 359.87 2370.76 350.63 2392.91 348.174C2413.52 345.889 2434.3 347.482 2454.86 349.426C2472.12 351.058 2490.91 354.203 2502.95 367.763C2515.18 381.528 2519.17 402.916 2518.44 420.817C2517.66 439.958 2514.02 458.021 2507.21 475.938C2499.95 495.017 2485.44 512.016 2470.45 525.563C2450.06 544.003 2427.58 561.083 2403.49 574.427C2380.63 587.089 2358.73 596.713 2332.05 595.05C2310.97 593.735 2289.2 588.399 2270.65 578.127C2253.46 568.608 2240.43 550.922 2235.2 532.039C2229.86 512.694 2234.93 491.023 2243.17 473.217Z" fill="#A5D7B3"/>
<path d="M649.161 820.341C649.161 938.313 486.92 981 291.91 981C96.8995 981 -44.3114 926.236 12.8072 750.783C32.4923 690.316 35.3672 526.795 230.377 526.795C425.387 526.795 649.161 702.37 649.161 820.341Z" fill="#8BA3B9"/>
</svg>
