<svg width="382" height="402" viewBox="0 0 382 402" fill="none" xmlns="http://www.w3.org/2000/svg">
<path d="M162.5 164.7L174.6 179.6L157.2 156.5L175.2 179.8L164.8 165.2L181.8 187.9L182.4 187.5L191.9 200.9L203.2 214.8L201.6 213.8L219.3 236.7L207.2 221.7L224.6 244.8L206.6 221.6L217 236.1L200 213.4L199.4 213.9L189.9 200.4L178.6 186.6L180.2 187.5L162.5 164.7Z" stroke="#231F20" stroke-miterlimit="10"/>
<path d="M161.5 163.2L174 178.8L156.1 154.8L174.7 179L164 163.9L181.5 187.4L182.2 187.1L192 201L203.7 215.4L202 214.4L220.3 238.1L207.8 222.6L225.7 246.5L207.1 222.4L217.8 237.4L200.2 213.9L199.6 214.3L189.8 200.4L178.1 186L179.8 187L161.5 163.2Z" stroke="#231F20" stroke-miterlimit="10"/>
<path d="M160.4 161.8L173.4 177.9L154.9 153.1L174.2 178.1L163.2 162.6L181.3 187L182 186.6L192.1 201L204.2 216L202.4 214.9L221.3 239.6L208.3 223.4L226.8 248.3L207.6 223.2L218.6 238.8L200.5 214.4L199.7 214.7L189.7 200.3L177.5 185.3L179.4 186.4L160.4 161.8Z" stroke="#231F20" stroke-miterlimit="10"/>
<path d="M159.3 160.2L172.8 177L153.8 151.3L173.6 177.3L162.4 161.2L181 186.5L181.9 186.2L192.2 201.1L204.8 216.7L202.8 215.5L222.4 241.1L208.9 224.3L228 250.1L208.1 224L219.4 240.2L200.7 214.9L199.9 215.2L189.6 200.3L177 184.6L178.9 185.8L159.3 160.2Z" stroke="#231F20" stroke-miterlimit="10"/>
<path d="M158.2 158.6L172.2 176.1L152.6 149.4L173.1 176.4L161.6 159.7L180.8 186L181.7 185.7L192.3 201.1L205.4 217.4L203.3 216.1L223.5 242.7L209.5 225.2L229.2 251.9L208.7 224.9L220.2 241.6L201 215.4L200 215.6L189.5 200.2L176.4 183.9L178.5 185.2L158.2 158.6Z" stroke="#231F20" stroke-miterlimit="10"/>
<path d="M157.1 157L171.6 175.2L151.4 147.4L172.6 175.5L160.7 158.3L180.5 185.5L181.6 185.3L192.4 201.2L206 218.2L203.7 216.7L224.7 244.4L210.1 226.1L230.4 253.9L209.2 225.8L221 243.1L201.3 215.9L200.2 216.1L189.3 200.1L175.8 183.2L178 184.6L157.1 157Z" stroke="#231F20" stroke-miterlimit="10"/>
<path d="M156 155.3L171 174.2L150.1 145.5L172 174.6L159.9 156.7L180.3 184.9L181.5 184.8L192.6 201.3L206.7 218.9L204.2 217.4L225.8 246.1L210.8 227.1L231.6 255.9L209.7 226.7L221.9 244.6L201.5 216.4L200.3 216.5L189.2 200L175.1 182.4L177.6 183.9L156 155.3Z" stroke="#231F20" stroke-miterlimit="10"/>
<path d="M154.8 153.5L170.3 173.2L148.9 143.4L171.5 173.7L159 155.2L180 184.4L181.4 184.3L192.7 201.4L207.3 219.7L204.7 218.1L227 247.8L211.4 228.1L232.9 257.9L210.3 227.7L222.7 246.2L201.8 216.9L200.4 217L189.1 200L174.4 181.6L177.1 183.3L154.8 153.5Z" stroke="#231F20" stroke-miterlimit="10"/>
<path d="M153.5 151.7L169.7 172.2L147.6 141.3L170.9 172.7L158.2 153.6L179.8 183.9H181.3L192.9 201.5L208 220.6L205.2 218.8L228.2 249.7L212.1 229.2L234.2 260.1L210.9 228.7L223.6 247.8L202 217.5H200.5L188.9 199.9L173.8 180.8L176.6 182.6L153.5 151.7Z" stroke="#231F20" stroke-miterlimit="10"/>
<path d="M152.3 149.8L169 171.1L146.3 139.1L170.4 171.7L157.4 151.9L179.5 183.3L181.2 183.4L193 201.6L208.7 221.4L205.7 219.5L229.5 251.5L212.7 230.2L235.5 262.2L211.4 229.7L224.4 249.4L202.2 218H200.6L188.7 199.8L173 179.9L176.1 181.8L152.3 149.8Z" stroke="#231F20" stroke-miterlimit="10"/>
<path d="M151 147.8L168.4 170L145 136.8L169.8 170.6L156.5 150.2L179.3 182.7L181.1 182.9L193.2 201.7L209.5 222.3L206.2 220.2L230.7 253.5L213.4 231.3L236.8 264.5L212 230.7L225.3 251.1L202.5 218.6L200.6 218.4L188.6 199.6L172.3 179L175.5 181.1L151 147.8Z" stroke="#231F20" stroke-miterlimit="10"/>
<path d="M149.7 145.8L167.7 168.9L143.7 134.5L169.2 169.6L155.7 148.5L179.1 182.2L181.1 182.4L193.4 201.8L210.3 223.3L206.8 221L232 255.5L214.1 232.5L238.1 266.8L212.5 231.8L226.1 252.8L202.7 219.2L200.7 218.9L188.4 199.5L171.5 178.1L175 180.3L149.7 145.8Z" stroke="#231F20" stroke-miterlimit="10"/>
<path d="M148.4 143.7L167 167.7L142.4 132.2L168.7 168.5L154.9 146.7L178.8 181.6L181.1 181.9L193.6 201.9L211.1 224.3L207.4 221.8L233.3 257.6L214.8 233.6L239.4 269.2L213.1 232.9L226.9 254.6L202.9 219.8L200.7 219.4L188.2 199.4L170.7 177.1L174.4 179.5L148.4 143.7Z" stroke="#231F20" stroke-miterlimit="10"/>
<path d="M147.1 141.6L166.3 166.5L141 129.7L168.1 167.4L154 144.9L178.6 181L181.1 181.4L193.8 202.1L211.9 225.3L207.9 222.7L234.7 259.7L215.5 234.8L240.7 271.6L213.7 234L227.7 256.4L203.1 220.4L200.7 219.9L187.9 199.3L169.9 176.1L173.8 178.7L147.1 141.6Z" stroke="#231F20" stroke-miterlimit="10"/>
<path d="M145.7 139.4L165.6 165.2L139.7 127.2L167.5 166.2L153.2 143.1L178.4 180.3L181.2 180.9L194.1 202.2L212.8 226.3L208.5 223.5L236.1 261.9L216.2 236.1L242.1 274.1L214.2 235.1L228.5 258.3L203.3 221L200.6 220.4L187.7 199.1L169 175L173.3 177.8L145.7 139.4Z" stroke="#231F20" stroke-miterlimit="10"/>
<path d="M144.3 137.1L164.8 164L138.4 124.6L167 165L152.5 141.2L178.2 179.7L181.2 180.5L194.3 202.4L213.7 227.5L209.1 224.4L237.4 264.2L216.9 237.4L243.4 276.7L214.8 236.3L229.3 260.2L203.5 221.6L200.5 220.9L187.4 198.9L168.1 173.9L172.7 176.9L144.3 137.1Z" stroke="#231F20" stroke-miterlimit="10"/>
<path d="M142.9 134.8L164.1 162.7L137 122L166.4 163.8L151.7 139.2L178.1 179.1L181.4 180L194.6 202.6L214.6 228.6L209.7 225.3L238.8 266.6L217.6 238.7L244.7 279.4L215.3 237.5L230.1 262.1L203.7 222.2L200.4 221.3L187.1 198.8L167.1 172.7L172 176L142.9 134.8Z" stroke="#231F20" stroke-miterlimit="10"/>
<path d="M141.5 132.3L163.4 161.3L135.7 119.3L165.9 162.6L151 137.3L177.9 178.4L181.5 179.5L194.9 202.8L215.6 229.8L210.4 226.3L240.3 269L218.4 240L246.1 282.1L215.9 238.7L230.8 264L203.8 222.9L200.3 221.8L186.8 198.6L166.2 171.5L171.4 175L141.5 132.3Z" stroke="#231F20" stroke-miterlimit="10"/>
<path d="M140.1 129.8L162.7 159.9L134.4 116.5L165.4 161.4L150.3 135.3L177.8 177.8L181.7 179.1L195.2 203L216.6 231.1L211 227.3L241.7 271.5L219.1 241.4L247.4 284.8L216.4 240L231.5 266.1L204 223.5L200.1 222.3L186.5 198.4L165.1 170.3L170.8 174.1L140.1 129.8Z" stroke="#231F20" stroke-miterlimit="10"/>
<path d="M138.6 127.3L162 158.5L133.1 113.6L164.9 160.1L149.7 133.2L177.7 177.1L182 178.6L195.6 203.2L217.7 232.4L211.7 228.3L243.2 274L219.8 242.8L248.7 287.7L216.9 241.3L232.1 268.1L204.1 224.2L199.8 222.7L186.2 198.1L164.1 169L170.1 173L138.6 127.3Z" stroke="#231F20" stroke-miterlimit="10"/>
<path d="M137.2 124.6L161.2 157L131.8 110.7L164.4 158.8L149.1 131.2L177.6 176.5L182.3 178.2L196 203.4L218.8 233.7L212.3 229.3L244.6 276.7L220.5 244.3L249.9 290.6L217.4 242.6L232.7 270.1L204.1 224.8L199.5 223.2L185.8 197.9L163 167.6L169.4 172L137.2 124.6Z" stroke="#231F20" stroke-miterlimit="10"/>
<path d="M135.7 121.9L160.5 155.6L130.6 107.8L163.9 157.4L148.5 129.1L177.6 175.8L182.6 177.7L196.3 203.7L219.9 235.2L213 230.4L246.1 279.4L221.2 245.8L251.2 293.6L217.9 243.9L233.2 272.2L204.2 225.5L199.1 223.6L185.4 197.6L161.9 166.2L168.7 170.9L135.7 121.9Z" stroke="#231F20" stroke-miterlimit="10"/>
<path d="M134.2 119.2L159.8 154L129.4 104.7L163.5 156.1L148 127L177.6 175.2L183.1 177.3L196.8 204L221.1 236.6L213.7 231.5L247.6 282.2L221.9 247.3L252.4 296.6L218.3 245.3L233.7 274.4L204.2 226.2L198.7 224L185 197.3L160.7 164.7L168.1 169.8L134.2 119.2Z" stroke="#231F20" stroke-miterlimit="10"/>
<path d="M132.7 116.3L159.1 152.5L128.2 101.7L163 154.7L147.6 124.8L177.6 174.5L183.6 177L197.2 204.3L222.3 238.2L214.4 232.7L249 285L222.6 248.9L253.5 299.7L218.7 246.6L234.1 276.5L204.2 226.8L198.2 224.4L184.5 197L159.5 163.2L167.3 168.6L132.7 116.3Z" stroke="#231F20" stroke-miterlimit="10"/>
<path d="M131.3 113.4L158.5 150.9L127.1 98.5L162.7 153.3L147.3 122.7L177.7 173.8L184.1 176.6L197.7 204.6L223.6 239.7L215.1 233.9L250.5 288L223.3 250.5L254.7 302.8L219.1 248L234.5 278.7L204.1 227.5L197.6 224.7L184.1 196.7L158.2 161.6L166.6 167.4L131.3 113.4Z" stroke="#231F20" stroke-miterlimit="10"/>
<path d="M129.8 110.4L157.8 149.2L126.1 95.2998L162.3 151.9L147.1 120.5L177.8 173.2L184.8 176.3L198.2 205L224.9 241.4L215.9 235.1L252 291L224 252.1L255.7 306L219.4 249.4L234.7 280.8L204 228.1L197 225L183.5 196.4L156.9 159.9L165.9 166.2L129.8 110.4Z" stroke="#231F20" stroke-miterlimit="10"/>
<path d="M128.4 107.3L157.2 147.6L125.1 92.1001L162 150.5L146.9 118.3L177.9 172.5L185.6 176L198.8 205.3L226.2 243.1L216.6 236.4L253.4 294L224.6 253.8L256.7 309.3L219.7 250.9L234.8 283L203.8 228.8L196.2 225.3L183 196L155.5 158.2L165.2 165L128.4 107.3Z" stroke="#231F20" stroke-miterlimit="10"/>
<path d="M127 104.2L156.5 145.9L124.2 88.7998L161.8 149L146.9 116.1L178.1 171.9L186.4 175.8L199.4 205.8L227.6 244.9L217.3 237.7L254.8 297.2L225.2 255.4L257.6 312.6L220 252.3L234.9 285.2L203.6 229.4L195.4 225.6L182.4 195.6L154.1 156.4L164.4 163.7L127 104.2Z" stroke="#231F20" stroke-miterlimit="10"/>
<path d="M125.6 100.9L156 144.2L123.4 85.3999L161.6 147.6L147 113.9L178.4 171.3L187.4 175.6L200 206.2L229.1 246.8L218.1 239L256.2 300.4L225.8 257.2L258.4 315.9L220.2 253.8L234.8 287.4L203.3 230.1L194.4 225.8L181.8 195.1L152.7 154.5L163.7 162.3L125.6 100.9Z" stroke="#231F20" stroke-miterlimit="10"/>
<path d="M124.2 97.7001L155.4 142.4L122.7 82.1001L161.5 146.1L147.2 111.8L178.8 170.7L188.4 175.4L200.7 206.7L230.6 248.7L218.8 240.4L257.6 303.7L226.3 258.9L259.1 319.3L220.3 255.2L234.5 289.6L203 230.7L193.3 225.9L181.1 194.7L151.2 152.6L162.9 161L124.2 97.7001Z" stroke="#231F20" stroke-miterlimit="10"/>
<path d="M122.9 94.2999L154.9 140.6L122.1 78.7L161.4 144.7L147.6 109.6L179.2 170.1L189.6 175.3L201.4 207.2L232.1 250.7L219.6 241.8L258.9 307L226.8 260.7L259.7 322.7L220.3 256.7L234.2 291.7L202.6 231.3L192.1 226L180.4 194.2L149.6 150.6L162.2 159.6L122.9 94.2999Z" stroke="#231F20" stroke-miterlimit="10"/>
<path d="M121.6 90.9L154.5 138.8L121.7 75.2L161.5 143.2L148.2 107.5L179.7 169.5L191 175.3L202.2 207.7L233.8 252.8L220.4 243.2L260.2 310.4L227.3 262.5L260.1 326.1L220.3 258.1L233.6 293.9L202.1 231.8L190.8 226L179.6 193.6L148 148.5L161.4 158.1L121.6 90.9Z" stroke="#231F20" stroke-miterlimit="10"/>
<path d="M120.4 87.3999L154.1 137L121.4 71.7998L161.6 141.7L148.9 105.3L180.3 169L192.5 175.3L203 208.3L235.4 255L221.1 244.7L261.4 313.9L227.7 264.3L260.4 329.6L220.2 259.6L232.9 296L201.5 232.4L189.3 226L178.8 193L146.4 146.3L160.7 156.6L120.4 87.3999Z" stroke="#231F20" stroke-miterlimit="10"/>
<path d="M119.3 83.8999L153.8 135.2L121.3 68.2998L161.8 140.3L149.8 103.3L180.9 168.4L194.1 175.5L203.9 208.9L237.1 257.2L221.9 246.2L262.5 317.4L228 266.2L260.5 333L220 261.1L231.9 298L200.8 232.9L187.7 225.9L177.9 192.4L144.6 144.1L159.9 155.1L119.3 83.8999Z" stroke="#231F20" stroke-miterlimit="10"/>
<path d="M118.2 80.2998L153.5 133.3L121.3 64.8999L162.1 138.8L151 101.3L181.7 168L195.9 175.7L204.8 209.6L238.9 259.6L222.6 247.8L263.6 321L228.3 268L260.4 336.5L219.7 262.5L230.8 300.1L200 233.4L185.8 225.7L176.9 191.8L142.9 141.7L159.2 153.5L118.2 80.2998Z" stroke="#231F20" stroke-miterlimit="10"/>
<path d="M117.2 76.6998L153.3 131.5L121.6 61.3999L162.6 137.4L152.4 99.2998L182.6 167.5L197.9 176L205.8 210.3L240.8 262L223.4 249.4L264.5 324.7L228.5 269.9L260.2 339.9L219.2 263.9L229.3 302L199.1 233.8L183.8 225.4L175.9 191L141 139.3L158.4 151.9L117.2 76.6998Z" stroke="#231F20" stroke-miterlimit="10"/>
<path d="M116.4 73L153.2 129.6L122.1 58L163.1 136L154.1 97.4L183.6 167.1L200.1 176.4L206.9 211.1L242.6 264.6L224.1 251L265.4 328.3L228.5 271.7L259.7 343.4L218.6 265.3L227.7 303.9L198.1 234.2L181.6 225L174.8 190.3L139.1 136.8L157.7 150.3L116.4 73Z" stroke="#231F20" stroke-miterlimit="10"/>
<path d="M115.6 69.3L153.2 127.7L122.9 54.6001L163.9 134.7L156.1 95.7001L184.8 166.8L202.6 176.9L208.1 211.9L244.6 267.2L224.8 252.7L266.1 332.1L228.5 273.6L258.9 346.8L217.9 266.7L225.7 305.7L197 234.5L179.2 224.5L173.7 189.4L137.2 134.2L157 148.6L115.6 69.3Z" stroke="#231F20" stroke-miterlimit="10"/>
<path d="M115 65.5L153.3 125.8L123.9 51.2L164.7 133.3L158.4 94L186.1 166.5L205.2 177.5L209.3 212.8L246.6 269.9L225.5 254.4L266.7 335.8L228.4 275.5L257.9 350.1L217 268L223.4 307.4L195.7 234.8L176.5 223.8L172.5 188.6L135.1 131.4L156.3 146.9L115 65.5Z" stroke="#231F20" stroke-miterlimit="10"/>
<path d="M114.6 61.6998L153.6 124L125.3 47.8999L165.8 132.1L161 92.3999L187.6 166.3L208.2 178.3L210.6 213.7L248.7 272.7L226.1 256.1L267.2 339.6L228.2 277.3L256.5 353.4L216 269.3L220.8 308.9L194.2 235L173.6 223L171.1 187.6L133.1 128.6L155.6 145.2L114.6 61.6998Z" stroke="#231F20" stroke-miterlimit="10"/>
<path d="M114.3 57.9L154 122.1L127 44.7L167 130.8L164 91L189.2 166.2L211.3 179.2L212 214.7L250.9 275.6L226.8 257.9L267.5 343.4L227.8 279.2L254.8 356.7L214.8 270.5L217.7 310.3L192.6 235.1L170.4 222.1L169.7 186.6L130.9 125.7L155 143.4L114.3 57.9Z" stroke="#231F20" stroke-miterlimit="10"/>
<path d="M114.2 54.1L154.5 120.3L129 41.5L168.5 129.7L167.5 89.7999L191 166.2L214.8 180.3L213.5 215.8L253.1 278.7L227.4 259.7L267.6 347.2L227.3 281L252.7 359.8L213.3 271.6L214.3 311.6L190.7 235.2L166.9 221L168.2 185.5L128.7 122.7L154.4 141.6L114.2 54.1Z" stroke="#231F20" stroke-miterlimit="10"/>
<path d="M114.3 50.2999L155.2 118.5L131.5 38.5L170.1 128.6L171.3 88.7L193 166.2L218.6 181.6L215.1 217L255.3 281.8L228 261.5L267.4 351L226.6 282.8L250.3 362.8L211.6 272.7L210.4 312.7L188.7 235.1L163.1 219.7L166.6 184.3L126.4 119.5L153.8 139.8L114.3 50.2999Z" stroke="#231F20" stroke-miterlimit="10"/>
<path d="M114.7 46.5001L156 116.8L134.4 35.6001L172.1 127.6L175.7 87.8L195.3 166.4L222.8 183.1L216.8 218.2L257.7 285.1L228.5 263.4L267.1 354.8L225.8 284.6L247.4 365.7L209.7 273.7L206.1 313.5L186.5 235L159 218.2L164.9 183.1L124.1 116.2L153.3 137.9L114.7 46.5001Z" stroke="#231F20" stroke-miterlimit="10"/>
<path d="M115.3 42.6998L157.1 115L137.8 32.8999L174.2 126.7L180.6 87.1998L197.8 166.7L227.3 184.8L218.7 219.6L260.1 288.5L228.9 265.3L266.5 358.6L224.7 286.3L243.9 368.4L207.5 274.6L201.2 314.2L184 234.7L154.5 216.5L163.1 181.8L121.7 112.9L152.8 136.1L115.3 42.6998Z" stroke="#231F20" stroke-miterlimit="10"/>
<path d="M116.2 38.9999L158.3 113.4L141.8 30.3999L176.7 126L186.1 86.7998L200.5 167.1L232.2 186.7L220.6 221L262.6 292L229.4 267.2L265.6 362.4L223.4 287.9L240 371L205.1 275.4L195.7 314.5L181.3 234.3L149.5 214.6L161.2 180.3L119.2 109.4L152.4 134.2L116.2 38.9999Z" stroke="#231F20" stroke-miterlimit="10"/>
<path d="M117.4 35.2999L159.9 111.8L146.3 28L179.5 125.3L192.2 86.7L203.5 167.6L237.6 188.9L222.7 222.5L265.1 295.6L229.7 269.1L264.3 366L221.9 289.5L235.5 373.3L202.3 276L189.6 314.6L178.3 233.7L144.2 212.4L159.1 178.8L116.6 105.7L152.1 132.2L117.4 35.2999Z" stroke="#231F20" stroke-miterlimit="10"/>
<path d="M119 31.6998L161.6 110.3L151.4 25.8999L182.6 124.8L198.9 86.8999L206.8 168.3L243.4 191.4L224.9 224.2L267.7 299.4L230 271L262.8 369.7L220.1 291L230.3 375.4L199.1 276.5L182.8 314.4L175 233L138.4 210L156.9 177.2L114 102L151.8 130.3L119 31.6998Z" stroke="#231F20" stroke-miterlimit="10"/>
<path d="M121 28.1001L163.7 108.9L157.3 24.1001L186.1 124.5L206.4 87.5001L210.4 169.2L249.7 194.1L227.2 225.9L270.4 303.2L230.2 273L260.8 373.2L218.1 292.4L224.5 377.2L195.6 276.8L175.3 313.8L171.3 232.1L132.1 207.2L154.5 175.4L111.3 98.1001L151.6 128.4L121 28.1001Z" stroke="#231F20" stroke-miterlimit="10"/>
<path d="M123.3 24.7001L166 107.6L163.9 22.6001L190 124.4L214.7 88.5001L214.4 170.3L256.5 197.2L229.8 227.8L273.2 307.3L230.3 274.9L258.5 376.6L215.7 293.7L217.9 378.8L191.7 277L167 312.9L167.4 231.1L125.3 204.1L152 173.6L108.6 94.1001L151.5 126.4L123.3 24.7001Z" stroke="#231F20" stroke-miterlimit="10"/>
<path d="M126.1 21.3999L168.7 106.4L171.3 21.3999L194.4 124.4L223.9 89.8999L218.7 171.5L263.9 200.6L232.4 229.8L276 311.4L230.3 276.9L255.6 379.9L213.1 294.9L210.5 379.9L187.4 276.9L157.9 311.5L163 229.8L117.9 200.7L149.3 171.6L105.8 89.8999L151.5 124.4L126.1 21.3999Z" stroke="#231F20" stroke-miterlimit="10"/>
<path d="M129.5 18.2998L171.8 105.4L179.5 20.5999L199.2 124.7L233.9 91.6998L223.5 173L271.9 204.5L235.3 231.9L278.9 315.7L230.2 278.9L252.3 383L210 295.9L202.2 380.7L182.6 276.6L147.9 309.6L158.3 228.3L109.9 196.9L146.5 169.4L102.9 85.5999L151.6 122.5L129.5 18.2998Z" stroke="#231F20" stroke-miterlimit="10"/>
<path d="M133.3 15.2998L175.2 104.5L188.8 20.2998L204.5 125.2L245 94.0999L228.7 174.8L280.5 208.7L238.4 234.2L281.8 320.2L229.9 280.8L248.4 386L206.6 296.8L193 381.1L177.2 276.1L136.8 307.2L153.1 226.6L101.2 192.6L143.4 167.1L99.8999 81.1998L151.8 120.5L133.3 15.2998Z" stroke="#231F20" stroke-miterlimit="10"/>
<path d="M137.8 12.6001L179.1 103.8L199 20.4001L210.4 126.1L257.1 97.1001L234.3 176.8L289.9 213.4L241.6 236.6L284.9 324.8L229.5 282.7L243.9 388.8L202.7 297.5L182.8 380.9L171.3 275.3L124.7 304.2L147.5 224.5L91.8999 188L140.2 164.7L96.8999 76.6001L152.2 118.6L137.8 12.6001Z" stroke="#231F20" stroke-miterlimit="10"/>
<path d="M142.9 10L183.4 103.4L210.4 21.1L216.9 127.2L270.4 100.7L240.5 179.1L300 218.5L245.1 239.2L287.9 329.5L229 284.6L238.8 391.3L198.4 298L171.4 380.2L164.9 274.1L111.4 300.6L141.3 222.2L81.7998 182.8L136.7 162.1L93.7998 71.7999L152.8 116.7L142.9 10Z" stroke="#231F20" stroke-miterlimit="10"/>
<path d="M148.8 7.7998L188.2 103.1L223 22.3999L224 128.7L284.9 105L247.1 181.7L310.9 224.2L248.8 242L291.1 334.4L228.3 286.5L233 393.5L193.5 298.2L158.8 379L157.7 272.7L96.8999 296.3L134.6 219.6L70.8999 177.1L133 159.3L90.6998 66.8999L153.5 114.8L148.8 7.7998Z" stroke="#231F20" stroke-miterlimit="10"/>
<path d="M155.4 5.8999L193.6 103.1L236.8 24.2998L231.8 130.5L300.8 110.1L254.4 184.7L322.7 230.5L252.7 245L294.3 339.5L227.4 288.4L226.4 395.5L188.1 298.2L144.9 377.1L149.9 270.8L81.0001 291.3L127.4 216.6L59.1001 170.9L129.1 156.3L87.5001 61.7998L154.4 113L155.4 5.8999Z" stroke="#231F20" stroke-miterlimit="10"/>
<path d="M162.8 4.2998L199.6 103.4L252.1 26.8999L240.4 132.7L318.1 115.9L262.3 188L335.4 237.3L256.9 248.2L297.6 344.7L226.3 290.2L219 397.1L182.2 298L129.6 374.4L141.4 268.6L63.6998 285.4L119.5 213.3L46.3999 164L124.9 153.2L84.1998 56.5999L155.5 111.2L162.8 4.2998Z" stroke="#231F20" stroke-miterlimit="10"/>
<path d="M171.2 3.1001L206.2 104L269 30.4001L249.8 135.4L336.9 122.7L270.9 191.8L349.1 244.8L261.4 251.6L300.9 350.1L225 291.9L210.6 398.3L175.5 297.4L112.8 371L132 265.9L44.8003 278.6L110.9 209.5L32.7002 156.5L120.4 149.8L80.9003 51.2001L156.8 109.4L171.2 3.1001Z" stroke="#231F20" stroke-miterlimit="10"/>
<path d="M180.5 2.2998L213.5 104.9L287.4 34.6998L260 138.6L357.5 130.5L280.1 196L363.9 253.1L266.2 255.2L304.2 355.6L223.4 293.5L201.3 399L168.2 296.4L94.3999 366.6L121.7 262.7L24.2999 270.9L101.6 205.3L17.8999 148.3L115.6 146.2L77.4999 45.6998L158.4 107.8L180.5 2.2998Z" stroke="#231F20" stroke-miterlimit="10"/>
<path d="M190.9 2L221.6 106.2L307.6 40L271.2 142.3L379.8 139.3L290.2 200.7L379.8 262L271.2 259L307.6 361.4L221.6 295.1L190.9 399.3L160.2 295.1L74.1 361.4L110.5 259L2 262L91.6 200.7L2 139.3L110.5 142.3L74.1 40L160.2 106.2L190.9 2Z" stroke="#231F20" stroke-miterlimit="10"/>
</svg>
