<svg width="1440" height="150" viewBox="0 0 1440 150" fill="none" xmlns="http://www.w3.org/2000/svg">
<g clip-path="url(#clip0_901_409)" filter="url(#filter0_d_901_409)">
<g filter="url(#filter1_d_901_409)">
<mask id="path-1-outside-1_901_409" maskUnits="userSpaceOnUse" x="-774" y="12" width="2349" height="127" fill="black">
<rect fill="white" x="-774" y="12" width="2349" height="127"/>
<path d="M-772.25 114.6H-742.67V36.4H-771.23V16H-721.25V114.6H-693.71V135H-772.25V114.6ZM-648.778 99.81C-648.665 102.303 -648.098 104.627 -647.078 106.78C-645.945 108.82 -644.472 110.633 -642.658 112.22C-640.732 113.693 -638.578 114.883 -636.198 115.79C-633.705 116.583 -631.098 116.98 -628.378 116.98C-623.052 116.98 -618.972 116.073 -616.138 114.26C-613.305 112.333 -611.265 110.067 -610.018 107.46L-591.658 117.66C-592.678 119.813 -594.095 122.08 -595.908 124.46C-597.722 126.727 -600.102 128.823 -603.048 130.75C-605.882 132.677 -609.395 134.263 -613.588 135.51C-617.668 136.757 -622.485 137.38 -628.038 137.38C-634.385 137.38 -640.165 136.36 -645.378 134.32C-650.592 132.28 -655.125 129.333 -658.978 125.48C-662.718 121.627 -665.665 116.923 -667.818 111.37C-669.858 105.817 -670.878 99.5267 -670.878 92.5V91.48C-670.878 85.02 -669.802 79.1267 -667.648 73.8C-665.382 68.4733 -662.322 63.94 -658.468 60.2C-654.615 56.46 -650.138 53.57 -645.038 51.53C-639.825 49.3767 -634.272 48.3 -628.378 48.3C-621.125 48.3 -614.892 49.6033 -609.678 52.21C-604.465 54.7033 -600.158 57.9333 -596.758 61.9C-593.358 65.7533 -590.865 70.06 -589.278 74.82C-587.692 79.4667 -586.898 84 -586.898 88.42V99.81H-648.778ZM-628.548 67.68C-633.988 67.68 -638.408 69.0967 -641.808 71.93C-645.208 74.65 -647.418 77.8233 -648.438 81.45H-608.658C-609.338 77.4833 -611.492 74.1967 -615.118 71.59C-618.632 68.9833 -623.108 67.68 -628.548 67.68ZM-565.936 50.68H-540.946V16H-519.526V50.68H-489.096V71.08H-519.526V109.5C-519.526 112.9 -517.996 114.6 -514.936 114.6H-492.156V135H-527.856C-531.71 135 -534.883 133.753 -537.376 131.26C-539.756 128.767 -540.946 125.593 -540.946 121.74V71.08H-565.936V50.68ZM-436.855 29.6C-436.855 27.4467 -436.458 25.4067 -435.665 23.48C-434.758 21.44 -433.568 19.74 -432.095 18.38C-430.621 16.9067 -428.921 15.7733 -426.995 14.98C-425.068 14.0733 -422.971 13.62 -420.705 13.62C-418.551 13.62 -416.511 14.0733 -414.585 14.98C-412.545 15.7733 -410.788 16.9067 -409.315 18.38C-407.841 19.74 -406.708 21.44 -405.915 23.48C-405.008 25.4067 -404.555 27.4467 -404.555 29.6V50.34C-404.555 54.6467 -406.028 58.2733 -408.975 61.22C-411.808 64.1667 -415.378 65.64 -419.685 65.64H-430.565V52.38H-422.405C-419.345 52.38 -417.815 50.68 -417.815 47.28V45.24C-418.721 45.58 -419.685 45.75 -420.705 45.75C-422.971 45.75 -425.068 45.3533 -426.995 44.56C-428.921 43.6533 -430.621 42.4633 -432.095 40.99C-433.568 39.5167 -434.758 37.8167 -435.665 35.89C-436.458 33.9633 -436.855 31.8667 -436.855 29.6ZM-328.513 74.48C-328.513 77.2 -327.096 79.1833 -324.263 80.43C-321.429 81.5633 -316.273 82.5267 -308.793 83.32C-300.179 84.2267 -293.153 86.8333 -287.713 91.14C-282.273 95.3333 -279.553 101.227 -279.553 108.82V109.84C-279.553 118.227 -282.613 124.913 -288.733 129.9C-294.853 134.887 -303.466 137.38 -314.573 137.38C-321.146 137.38 -326.756 136.53 -331.403 134.83C-336.049 133.13 -339.903 131.033 -342.963 128.54C-346.023 125.933 -348.403 123.1 -350.103 120.04C-351.689 116.867 -352.766 113.807 -353.333 110.86L-333.613 104.4C-332.706 108.027 -330.836 111.2 -328.003 113.92C-325.056 116.64 -320.579 118 -314.573 118C-309.246 118 -305.619 117.207 -303.693 115.62C-301.653 113.92 -300.633 112.107 -300.633 110.18C-300.633 109.047 -300.916 108.027 -301.483 107.12C-301.936 106.1 -302.843 105.193 -304.203 104.4C-305.563 103.493 -307.433 102.757 -309.813 102.19C-312.079 101.623 -314.969 101.17 -318.483 100.83C-328.003 100.037 -335.596 97.6 -341.263 93.52C-346.816 89.3267 -349.593 83.2067 -349.593 75.16V74.14C-349.593 69.9467 -348.686 66.2633 -346.873 63.09C-345.059 59.9167 -342.679 57.2533 -339.733 55.1C-336.786 52.8333 -333.386 51.1333 -329.533 50C-325.679 48.8667 -321.713 48.3 -317.633 48.3C-312.306 48.3 -307.716 48.98 -303.863 50.34C-299.896 51.5867 -296.553 53.2867 -293.833 55.44C-291.113 57.48 -288.903 59.8033 -287.203 62.41C-285.503 64.9033 -284.199 67.34 -283.293 69.72L-302.673 77.54C-303.693 74.48 -305.449 72.1 -307.943 70.4C-310.436 68.5867 -313.666 67.68 -317.633 67.68C-321.259 67.68 -323.979 68.36 -325.793 69.72C-327.606 70.9667 -328.513 72.5533 -328.513 74.48ZM-64.5692 135H-101.629L-106.389 71.08V60.88H-110.469V71.08L-115.229 135H-152.289L-157.899 50.68H-138.179L-134.439 114.6V124.8H-130.359V114.6L-126.109 50.68H-90.7492L-86.4992 114.6V124.8H-82.4192V114.6L-78.6792 50.68H-58.9592L-64.5692 135ZM39.5226 93.86C39.5226 100.887 38.3326 107.12 35.9526 112.56C33.5726 117.887 30.3426 122.42 26.2626 126.16C22.1826 129.787 17.4792 132.563 12.1526 134.49C6.93925 136.417 1.44258 137.38 -4.33742 137.38C-10.1174 137.38 -15.6708 136.417 -20.9974 134.49C-26.2108 132.563 -30.8574 129.787 -34.9374 126.16C-39.0174 122.42 -42.2474 117.887 -44.6274 112.56C-47.0074 107.12 -48.1974 100.887 -48.1974 93.86V91.82C-48.1974 84.9067 -47.0074 78.7867 -44.6274 73.46C-42.2474 68.02 -39.0174 63.43 -34.9374 59.69C-30.8574 55.95 -26.2108 53.1167 -20.9974 51.19C-15.6708 49.2633 -10.1174 48.3 -4.33742 48.3C1.44258 48.3 6.93925 49.2633 12.1526 51.19C17.4792 53.1167 22.1826 55.95 26.2626 59.69C30.3426 63.43 33.5726 68.02 35.9526 73.46C38.3326 78.7867 39.5226 84.9067 39.5226 91.82V93.86ZM-4.33742 116.98C-1.27742 116.98 1.61258 116.47 4.33258 115.45C7.05258 114.43 9.43258 112.957 11.4726 111.03C13.5126 109.103 15.0992 106.78 16.2326 104.06C17.4792 101.227 18.1026 98.0533 18.1026 94.54V91.14C18.1026 87.6267 17.4792 84.51 16.2326 81.79C15.0992 78.9567 13.5126 76.5767 11.4726 74.65C9.43258 72.7233 7.05258 71.25 4.33258 70.23C1.61258 69.21 -1.27742 68.7 -4.33742 68.7C-7.39742 68.7 -10.2874 69.21 -13.0074 70.23C-15.7274 71.25 -18.1074 72.7233 -20.1474 74.65C-22.1874 76.5767 -23.8308 78.9567 -25.0774 81.79C-26.2108 84.51 -26.7774 87.6267 -26.7774 91.14V94.54C-26.7774 98.0533 -26.2108 101.227 -25.0774 104.06C-23.8308 106.78 -22.1874 109.103 -20.1474 111.03C-18.1074 112.957 -15.7274 114.43 -13.0074 115.45C-10.2874 116.47 -7.39742 116.98 -4.33742 116.98ZM56.9144 50.68H92.6144V62.92H95.6744C97.261 58.2733 99.9244 54.7033 103.664 52.21C107.518 49.6033 112.108 48.3 117.434 48.3C125.821 48.3 132.564 50.9633 137.664 56.29C142.764 61.5033 145.314 69.4933 145.314 80.26V84L123.214 86.04V83.66C123.214 79.0133 122.024 75.33 119.644 72.61C117.264 69.7767 113.694 68.36 108.934 68.36C104.174 68.36 100.434 70.0033 97.7144 73.29C94.9944 76.5767 93.6344 81.28 93.6344 87.4V114.6H113.014V135H54.8744V114.6H72.2144V71.08H56.9144V50.68ZM193.306 81.62H197.386L219.826 50.68H243.286V51.7L216.086 90.29V93.35L246.006 133.98V135H221.526L197.386 102.02H193.306V135H171.886V16H193.306V81.62ZM324.088 121.23C324.088 123.497 323.635 125.65 322.728 127.69C321.935 129.617 320.801 131.317 319.328 132.79C317.855 134.15 316.098 135.227 314.058 136.02C312.131 136.927 310.091 137.38 307.938 137.38C305.671 137.38 303.575 136.927 301.648 136.02C299.721 135.227 298.021 134.15 296.548 132.79C295.075 131.317 293.885 129.617 292.978 127.69C292.185 125.65 291.788 123.497 291.788 121.23C291.788 118.963 292.185 116.867 292.978 114.94C293.885 112.9 295.075 111.2 296.548 109.84C298.021 108.367 299.721 107.233 301.648 106.44C303.575 105.533 305.671 105.08 307.938 105.08C310.091 105.08 312.131 105.533 314.058 106.44C316.098 107.233 317.855 108.367 319.328 109.84C320.801 111.2 321.935 112.9 322.728 114.94C323.635 116.867 324.088 118.963 324.088 121.23ZM476.852 114.6H506.432V36.4H477.872V16H527.852V114.6H555.392V135H476.852V114.6ZM600.323 99.81C600.437 102.303 601.003 104.627 602.023 106.78C603.157 108.82 604.63 110.633 606.443 112.22C608.37 113.693 610.523 114.883 612.903 115.79C615.397 116.583 618.003 116.98 620.723 116.98C626.05 116.98 630.13 116.073 632.963 114.26C635.797 112.333 637.837 110.067 639.083 107.46L657.443 117.66C656.423 119.813 655.007 122.08 653.193 124.46C651.38 126.727 649 128.823 646.053 130.75C643.22 132.677 639.707 134.263 635.513 135.51C631.433 136.757 626.617 137.38 621.063 137.38C614.717 137.38 608.937 136.36 603.723 134.32C598.51 132.28 593.977 129.333 590.123 125.48C586.383 121.627 583.437 116.923 581.283 111.37C579.243 105.817 578.223 99.5267 578.223 92.5V91.48C578.223 85.02 579.3 79.1267 581.453 73.8C583.72 68.4733 586.78 63.94 590.633 60.2C594.487 56.46 598.963 53.57 604.063 51.53C609.277 49.3767 614.83 48.3 620.723 48.3C627.977 48.3 634.21 49.6033 639.423 52.21C644.637 54.7033 648.943 57.9333 652.343 61.9C655.743 65.7533 658.237 70.06 659.823 74.82C661.41 79.4667 662.203 84 662.203 88.42V99.81H600.323ZM620.553 67.68C615.113 67.68 610.693 69.0967 607.293 71.93C603.893 74.65 601.683 77.8233 600.663 81.45H640.443C639.763 77.4833 637.61 74.1967 633.983 71.59C630.47 68.9833 625.993 67.68 620.553 67.68ZM683.165 50.68H708.155V16H729.575V50.68H760.005V71.08H729.575V109.5C729.575 112.9 731.105 114.6 734.165 114.6H756.945V135H721.245C717.392 135 714.218 133.753 711.725 131.26C709.345 128.767 708.155 125.593 708.155 121.74V71.08H683.165V50.68ZM812.247 29.6C812.247 27.4467 812.644 25.4067 813.437 23.48C814.344 21.44 815.534 19.74 817.007 18.38C818.48 16.9067 820.18 15.7733 822.107 14.98C824.034 14.0733 826.13 13.62 828.397 13.62C830.55 13.62 832.59 14.0733 834.517 14.98C836.557 15.7733 838.314 16.9067 839.787 18.38C841.26 19.74 842.394 21.44 843.187 23.48C844.094 25.4067 844.547 27.4467 844.547 29.6V50.34C844.547 54.6467 843.074 58.2733 840.127 61.22C837.294 64.1667 833.724 65.64 829.417 65.64H818.537V52.38H826.697C829.757 52.38 831.287 50.68 831.287 47.28V45.24C830.38 45.58 829.417 45.75 828.397 45.75C826.13 45.75 824.034 45.3533 822.107 44.56C820.18 43.6533 818.48 42.4633 817.007 40.99C815.534 39.5167 814.344 37.8167 813.437 35.89C812.644 33.9633 812.247 31.8667 812.247 29.6ZM920.589 74.48C920.589 77.2 922.005 79.1833 924.839 80.43C927.672 81.5633 932.829 82.5267 940.309 83.32C948.922 84.2267 955.949 86.8333 961.389 91.14C966.829 95.3333 969.549 101.227 969.549 108.82V109.84C969.549 118.227 966.489 124.913 960.369 129.9C954.249 134.887 945.635 137.38 934.529 137.38C927.955 137.38 922.345 136.53 917.699 134.83C913.052 133.13 909.199 131.033 906.139 128.54C903.079 125.933 900.699 123.1 898.999 120.04C897.412 116.867 896.335 113.807 895.769 110.86L915.489 104.4C916.395 108.027 918.265 111.2 921.099 113.92C924.045 116.64 928.522 118 934.529 118C939.855 118 943.482 117.207 945.409 115.62C947.449 113.92 948.469 112.107 948.469 110.18C948.469 109.047 948.185 108.027 947.619 107.12C947.165 106.1 946.259 105.193 944.899 104.4C943.539 103.493 941.669 102.757 939.289 102.19C937.022 101.623 934.132 101.17 930.619 100.83C921.099 100.037 913.505 97.6 907.839 93.52C902.285 89.3267 899.509 83.2067 899.509 75.16V74.14C899.509 69.9467 900.415 66.2633 902.229 63.09C904.042 59.9167 906.422 57.2533 909.369 55.1C912.315 52.8333 915.715 51.1333 919.569 50C923.422 48.8667 927.389 48.3 931.469 48.3C936.795 48.3 941.385 48.98 945.239 50.34C949.205 51.5867 952.549 53.2867 955.269 55.44C957.989 57.48 960.199 59.8033 961.899 62.41C963.599 64.9033 964.902 67.34 965.809 69.72L946.429 77.54C945.409 74.48 943.652 72.1 941.159 70.4C938.665 68.5867 935.435 67.68 931.469 67.68C927.842 67.68 925.122 68.36 923.309 69.72C921.495 70.9667 920.589 72.5533 920.589 74.48ZM1184.53 135H1147.47L1142.71 71.08V60.88H1138.63V71.08L1133.87 135H1096.81L1091.2 50.68H1110.92L1114.66 114.6V124.8H1118.74V114.6L1122.99 50.68H1158.35L1162.6 114.6V124.8H1166.68V114.6L1170.42 50.68H1190.14L1184.53 135ZM1288.62 93.86C1288.62 100.887 1287.43 107.12 1285.05 112.56C1282.67 117.887 1279.44 122.42 1275.36 126.16C1271.28 129.787 1266.58 132.563 1261.25 134.49C1256.04 136.417 1250.54 137.38 1244.76 137.38C1238.98 137.38 1233.43 136.417 1228.1 134.49C1222.89 132.563 1218.24 129.787 1214.16 126.16C1210.08 122.42 1206.85 117.887 1204.47 112.56C1202.09 107.12 1200.9 100.887 1200.9 93.86V91.82C1200.9 84.9067 1202.09 78.7867 1204.47 73.46C1206.85 68.02 1210.08 63.43 1214.16 59.69C1218.24 55.95 1222.89 53.1167 1228.1 51.19C1233.43 49.2633 1238.98 48.3 1244.76 48.3C1250.54 48.3 1256.04 49.2633 1261.25 51.19C1266.58 53.1167 1271.28 55.95 1275.36 59.69C1279.44 63.43 1282.67 68.02 1285.05 73.46C1287.43 78.7867 1288.62 84.9067 1288.62 91.82V93.86ZM1244.76 116.98C1247.82 116.98 1250.71 116.47 1253.43 115.45C1256.15 114.43 1258.53 112.957 1260.57 111.03C1262.61 109.103 1264.2 106.78 1265.33 104.06C1266.58 101.227 1267.2 98.0533 1267.2 94.54V91.14C1267.2 87.6267 1266.58 84.51 1265.33 81.79C1264.2 78.9567 1262.61 76.5767 1260.57 74.65C1258.53 72.7233 1256.15 71.25 1253.43 70.23C1250.71 69.21 1247.82 68.7 1244.76 68.7C1241.7 68.7 1238.81 69.21 1236.09 70.23C1233.37 71.25 1230.99 72.7233 1228.95 74.65C1226.91 76.5767 1225.27 78.9567 1224.02 81.79C1222.89 84.51 1222.32 87.6267 1222.32 91.14V94.54C1222.32 98.0533 1222.89 101.227 1224.02 104.06C1225.27 106.78 1226.91 109.103 1228.95 111.03C1230.99 112.957 1233.37 114.43 1236.09 115.45C1238.81 116.47 1241.7 116.98 1244.76 116.98ZM1306.02 50.68H1341.72V62.92H1344.78C1346.36 58.2733 1349.03 54.7033 1352.77 52.21C1356.62 49.6033 1361.21 48.3 1366.54 48.3C1374.92 48.3 1381.67 50.9633 1386.77 56.29C1391.87 61.5033 1394.42 69.4933 1394.42 80.26V84L1372.32 86.04V83.66C1372.32 79.0133 1371.13 75.33 1368.75 72.61C1366.37 69.7767 1362.8 68.36 1358.04 68.36C1353.28 68.36 1349.54 70.0033 1346.82 73.29C1344.1 76.5767 1342.74 81.28 1342.74 87.4V114.6H1362.12V135H1303.98V114.6H1321.32V71.08H1306.02V50.68ZM1442.41 81.62H1446.49L1468.93 50.68H1492.39V51.7L1465.19 90.29V93.35L1495.11 133.98V135H1470.63L1446.49 102.02H1442.41V135H1420.99V16H1442.41V81.62ZM1573.19 121.23C1573.19 123.497 1572.74 125.65 1571.83 127.69C1571.04 129.617 1569.9 131.317 1568.43 132.79C1566.96 134.15 1565.2 135.227 1563.16 136.02C1561.23 136.927 1559.19 137.38 1557.04 137.38C1554.77 137.38 1552.68 136.927 1550.75 136.02C1548.82 135.227 1547.12 134.15 1545.65 132.79C1544.18 131.317 1542.99 129.617 1542.08 127.69C1541.29 125.65 1540.89 123.497 1540.89 121.23C1540.89 118.963 1541.29 116.867 1542.08 114.94C1542.99 112.9 1544.18 111.2 1545.65 109.84C1547.12 108.367 1548.82 107.233 1550.75 106.44C1552.68 105.533 1554.77 105.08 1557.04 105.08C1559.19 105.08 1561.23 105.533 1563.16 106.44C1565.2 107.233 1566.96 108.367 1568.43 109.84C1569.9 111.2 1571.04 112.9 1571.83 114.94C1572.74 116.867 1573.19 118.963 1573.19 121.23Z"/>
</mask>
<path d="M-772.25 114.6V113.6H-773.25V114.6H-772.25ZM-742.67 114.6V115.6H-741.67V114.6H-742.67ZM-742.67 36.4H-741.67V35.4H-742.67V36.4ZM-771.23 36.4H-772.23V37.4H-771.23V36.4ZM-771.23 16V15H-772.23V16H-771.23ZM-721.25 16H-720.25V15H-721.25V16ZM-721.25 114.6H-722.25V115.6H-721.25V114.6ZM-693.71 114.6H-692.71V113.6H-693.71V114.6ZM-693.71 135V136H-692.71V135H-693.71ZM-772.25 135H-773.25V136H-772.25V135ZM-772.25 115.6H-742.67V113.6H-772.25V115.6ZM-741.67 114.6V36.4H-743.67V114.6H-741.67ZM-742.67 35.4H-771.23V37.4H-742.67V35.4ZM-770.23 36.4V16H-772.23V36.4H-770.23ZM-771.23 17H-721.25V15H-771.23V17ZM-722.25 16V114.6H-720.25V16H-722.25ZM-721.25 115.6H-693.71V113.6H-721.25V115.6ZM-694.71 114.6V135H-692.71V114.6H-694.71ZM-693.71 134H-772.25V136H-693.71V134ZM-771.25 135V114.6H-773.25V135H-771.25ZM-648.778 99.81V98.81H-649.825L-649.777 99.8554L-648.778 99.81ZM-647.078 106.78L-647.982 107.208L-647.968 107.237L-647.952 107.266L-647.078 106.78ZM-642.658 112.22L-643.317 112.973L-643.292 112.994L-643.266 113.014L-642.658 112.22ZM-636.198 115.79L-636.554 116.724L-636.528 116.734L-636.501 116.743L-636.198 115.79ZM-616.138 114.26L-615.599 115.102L-615.587 115.095L-615.576 115.087L-616.138 114.26ZM-610.018 107.46L-609.533 106.586L-610.462 106.07L-610.92 107.029L-610.018 107.46ZM-591.658 117.66L-590.754 118.088L-590.353 117.241L-591.173 116.786L-591.658 117.66ZM-595.908 124.46L-595.127 125.085L-595.12 125.075L-595.113 125.066L-595.908 124.46ZM-603.048 130.75L-603.595 129.913L-603.603 129.918L-603.611 129.923L-603.048 130.75ZM-613.588 135.51L-613.873 134.551L-613.88 134.554L-613.588 135.51ZM-645.378 134.32L-645.743 135.251L-645.743 135.251L-645.378 134.32ZM-658.978 125.48L-659.696 126.176L-659.691 126.182L-659.685 126.187L-658.978 125.48ZM-667.818 111.37L-668.757 111.715L-668.754 111.723L-668.751 111.732L-667.818 111.37ZM-667.648 73.8L-668.568 73.4084L-668.572 73.4168L-668.575 73.4252L-667.648 73.8ZM-658.468 60.2L-659.165 59.4824L-659.165 59.4824L-658.468 60.2ZM-645.038 51.53L-644.667 52.4585L-644.656 52.4543L-645.038 51.53ZM-609.678 52.21L-610.125 53.1044L-610.118 53.1083L-610.11 53.1121L-609.678 52.21ZM-596.758 61.9L-597.517 62.5508L-597.513 62.5562L-597.508 62.5616L-596.758 61.9ZM-589.278 74.82L-590.227 75.1362L-590.225 75.1431L-589.278 74.82ZM-586.898 99.81V100.81H-585.898V99.81H-586.898ZM-641.808 71.93L-641.184 72.7109L-641.176 72.7046L-641.168 72.6982L-641.808 71.93ZM-648.438 81.45L-649.401 81.1792L-649.758 82.45H-648.438V81.45ZM-608.658 81.45V82.45H-607.472L-607.673 81.281L-608.658 81.45ZM-615.118 71.59L-615.714 72.3931L-615.708 72.3976L-615.702 72.402L-615.118 71.59ZM-649.777 99.8554C-649.658 102.475 -649.061 104.929 -647.982 107.208L-646.174 106.352C-647.135 104.324 -647.672 102.132 -647.779 99.7646L-649.777 99.8554ZM-647.952 107.266C-646.761 109.41 -645.214 111.313 -643.317 112.973L-642 111.467C-643.729 109.954 -645.128 108.23 -646.204 106.294L-647.952 107.266ZM-643.266 113.014C-641.259 114.549 -639.02 115.785 -636.554 116.724L-635.842 114.856C-638.137 113.981 -640.204 112.838 -642.051 111.426L-643.266 113.014ZM-636.501 116.743C-633.906 117.569 -631.197 117.98 -628.378 117.98V115.98C-630.999 115.98 -633.504 115.598 -635.895 114.837L-636.501 116.743ZM-628.378 117.98C-622.962 117.98 -618.662 117.062 -615.599 115.102L-616.677 113.418C-619.281 115.084 -623.141 115.98 -628.378 115.98V117.98ZM-615.576 115.087C-612.624 113.079 -610.452 110.685 -609.116 107.891L-610.92 107.029C-612.078 109.448 -613.986 111.587 -616.701 113.433L-615.576 115.087ZM-610.504 108.334L-592.144 118.534L-591.173 116.786L-609.533 106.586L-610.504 108.334ZM-592.562 117.232C-593.546 119.309 -594.922 121.516 -596.704 123.854L-595.113 125.066C-593.267 122.644 -591.811 120.318 -590.754 118.088L-592.562 117.232ZM-596.689 123.835C-598.424 126.004 -600.719 128.032 -603.595 129.913L-602.501 131.587C-599.484 129.614 -597.019 127.449 -595.127 125.085L-596.689 123.835ZM-603.611 129.923C-606.339 131.778 -609.753 133.326 -613.873 134.551L-613.303 136.469C-609.037 135.2 -605.424 133.575 -602.486 131.577L-603.611 129.923ZM-613.88 134.554C-617.842 135.764 -622.556 136.38 -628.038 136.38V138.38C-622.414 138.38 -617.494 137.749 -613.296 136.466L-613.88 134.554ZM-628.038 136.38C-634.277 136.38 -639.931 135.378 -645.014 133.389L-645.743 135.251C-640.399 137.342 -634.493 138.38 -628.038 138.38V136.38ZM-645.014 133.389C-650.102 131.398 -654.518 128.526 -658.271 124.773L-659.685 126.187C-655.732 130.141 -651.081 133.162 -645.743 135.251L-645.014 133.389ZM-658.261 124.784C-661.898 121.036 -664.776 116.451 -666.886 111.008L-668.751 111.732C-666.554 117.396 -663.539 122.217 -659.696 126.176L-658.261 124.784ZM-666.88 111.025C-668.872 105.601 -669.878 99.4306 -669.878 92.5H-671.878C-671.878 99.6228 -670.844 106.032 -668.757 111.715L-666.88 111.025ZM-669.878 92.5V91.48H-671.878V92.5H-669.878ZM-669.878 91.48C-669.878 85.1325 -668.821 79.3684 -666.721 74.1748L-668.575 73.4252C-670.782 78.8849 -671.878 84.9075 -671.878 91.48H-669.878ZM-666.728 74.1916C-664.509 68.9777 -661.522 64.5578 -657.772 60.9176L-659.165 59.4824C-663.121 63.3222 -666.254 67.969 -668.568 73.4084L-666.728 74.1916ZM-657.772 60.9176C-654.014 57.2705 -649.649 54.4512 -644.667 52.4585L-645.41 50.6015C-650.628 52.6888 -655.216 55.6495 -659.165 59.4824L-657.772 60.9176ZM-644.656 52.4543C-639.57 50.3532 -634.147 49.3 -628.378 49.3V47.3C-634.397 47.3 -640.08 48.4002 -645.42 50.6057L-644.656 52.4543ZM-628.378 49.3C-621.243 49.3 -615.17 50.5821 -610.125 53.1044L-609.231 51.3156C-614.613 48.6246 -621.007 47.3 -628.378 47.3V49.3ZM-610.11 53.1121C-605.008 55.5518 -600.818 58.7005 -597.517 62.5508L-595.999 61.2492C-599.499 57.1661 -603.921 53.8548 -609.247 51.3079L-610.11 53.1121ZM-597.508 62.5616C-594.195 66.3168 -591.77 70.5067 -590.227 75.1362L-588.33 74.5038C-589.96 69.6133 -592.522 65.1898 -596.008 61.2384L-597.508 62.5616ZM-590.225 75.1431C-588.669 79.6972 -587.898 84.1214 -587.898 88.42H-585.898C-585.898 83.8786 -586.714 79.2361 -588.332 74.4969L-590.225 75.1431ZM-587.898 88.42V99.81H-585.898V88.42H-587.898ZM-586.898 98.81H-648.778V100.81H-586.898V98.81ZM-628.548 66.68C-634.167 66.68 -638.83 68.1466 -642.448 71.1618L-641.168 72.6982C-637.986 70.0467 -633.81 68.68 -628.548 68.68V66.68ZM-642.433 71.1491C-645.97 73.9786 -648.316 77.3212 -649.401 81.1792L-647.476 81.7207C-646.521 78.3254 -644.447 75.3214 -641.184 72.7109L-642.433 71.1491ZM-648.438 82.45H-608.658V80.45H-648.438V82.45ZM-607.673 81.281C-608.402 77.0261 -610.72 73.5195 -614.535 70.778L-615.702 72.402C-612.263 74.8738 -610.274 77.9406 -609.644 81.619L-607.673 81.281ZM-614.522 70.7869C-618.246 68.024 -622.947 66.68 -628.548 66.68V68.68C-623.27 68.68 -619.017 69.9427 -615.714 72.3931L-614.522 70.7869ZM-565.936 50.68V49.68H-566.936V50.68H-565.936ZM-540.946 50.68V51.68H-539.946V50.68H-540.946ZM-540.946 16V15H-541.946V16H-540.946ZM-519.526 16H-518.526V15H-519.526V16ZM-519.526 50.68H-520.526V51.68H-519.526V50.68ZM-489.096 50.68H-488.096V49.68H-489.096V50.68ZM-489.096 71.08V72.08H-488.096V71.08H-489.096ZM-519.526 71.08V70.08H-520.526V71.08H-519.526ZM-492.156 114.6H-491.156V113.6H-492.156V114.6ZM-492.156 135V136H-491.156V135H-492.156ZM-537.376 131.26L-538.1 131.95L-538.092 131.959L-538.084 131.967L-537.376 131.26ZM-540.946 71.08H-539.946V70.08H-540.946V71.08ZM-565.936 71.08H-566.936V72.08H-565.936V71.08ZM-565.936 51.68H-540.946V49.68H-565.936V51.68ZM-539.946 50.68V16H-541.946V50.68H-539.946ZM-540.946 17H-519.526V15H-540.946V17ZM-520.526 16V50.68H-518.526V16H-520.526ZM-519.526 51.68H-489.096V49.68H-519.526V51.68ZM-490.096 50.68V71.08H-488.096V50.68H-490.096ZM-489.096 70.08H-519.526V72.08H-489.096V70.08ZM-520.526 71.08V109.5H-518.526V71.08H-520.526ZM-520.526 109.5C-520.526 111.33 -520.117 112.889 -519.122 113.994C-518.109 115.119 -516.649 115.6 -514.936 115.6V113.6C-516.283 113.6 -517.118 113.231 -517.636 112.656C-518.171 112.061 -518.526 111.07 -518.526 109.5H-520.526ZM-514.936 115.6H-492.156V113.6H-514.936V115.6ZM-493.156 114.6V135H-491.156V114.6H-493.156ZM-492.156 134H-527.856V136H-492.156V134ZM-527.856 134C-531.472 134 -534.382 132.84 -536.669 130.553L-538.084 131.967C-535.384 134.666 -531.948 136 -527.856 136V134ZM-536.653 130.57C-538.834 128.285 -539.946 125.369 -539.946 121.74H-541.946C-541.946 125.818 -540.679 129.249 -538.1 131.95L-536.653 130.57ZM-539.946 121.74V71.08H-541.946V121.74H-539.946ZM-540.946 70.08H-565.936V72.08H-540.946V70.08ZM-564.936 71.08V50.68H-566.936V71.08H-564.936ZM-435.665 23.48L-436.578 23.0739L-436.584 23.0865L-436.589 23.0992L-435.665 23.48ZM-432.095 18.38L-431.416 19.1148L-431.402 19.1012L-431.388 19.0871L-432.095 18.38ZM-426.995 14.98L-426.614 15.9047L-426.591 15.8953L-426.569 15.8848L-426.995 14.98ZM-414.585 14.98L-415.01 15.8848L-414.979 15.8995L-414.947 15.912L-414.585 14.98ZM-409.315 18.38L-410.022 19.0871L-410.008 19.1012L-409.993 19.1148L-409.315 18.38ZM-405.915 23.48L-406.847 23.8424L-406.834 23.8746L-406.819 23.9058L-405.915 23.48ZM-408.975 61.22L-409.682 60.5129L-409.689 60.5198L-409.695 60.5269L-408.975 61.22ZM-430.565 65.64H-431.565V66.64H-430.565V65.64ZM-430.565 52.38V51.38H-431.565V52.38H-430.565ZM-417.815 45.24H-416.815V43.797L-418.166 44.3037L-417.815 45.24ZM-426.995 44.56L-427.42 45.4648L-427.398 45.4753L-427.375 45.4847L-426.995 44.56ZM-435.665 35.89L-436.589 36.2707L-436.58 36.2935L-436.569 36.3158L-435.665 35.89ZM-435.855 29.6C-435.855 27.5728 -435.482 25.6626 -434.74 23.8607L-436.589 23.0992C-437.434 25.1507 -437.855 27.3205 -437.855 29.6H-435.855ZM-434.751 23.8861C-433.893 21.9564 -432.779 20.3725 -431.416 19.1148L-432.773 17.6452C-434.357 19.1075 -435.623 20.9236 -436.578 23.0739L-434.751 23.8861ZM-431.388 19.0871C-430.008 17.7071 -428.418 16.6477 -426.614 15.9047L-427.375 14.0553C-429.424 14.8989 -431.235 16.1062 -432.802 17.6729L-431.388 19.0871ZM-426.569 15.8848C-424.784 15.0448 -422.834 14.62 -420.705 14.62V12.62C-423.109 12.62 -425.352 13.1018 -427.42 14.0752L-426.569 15.8848ZM-420.705 14.62C-418.697 14.62 -416.802 15.0416 -415.01 15.8848L-414.159 14.0752C-416.22 13.1051 -418.406 12.62 -420.705 12.62V14.62ZM-414.947 15.912C-413.03 16.6577 -411.392 17.7167 -410.022 19.0871L-408.607 17.6729C-410.184 16.0966 -412.06 14.889 -414.222 14.048L-414.947 15.912ZM-409.993 19.1148C-408.641 20.3624 -407.59 21.931 -406.847 23.8424L-404.983 23.1176C-405.826 20.949 -407.041 19.1176 -408.636 17.6452L-409.993 19.1148ZM-406.819 23.9058C-405.976 25.6977 -405.555 27.5922 -405.555 29.6H-403.555C-403.555 27.3012 -404.04 25.1156 -405.01 23.0542L-406.819 23.9058ZM-405.555 29.6V50.34H-403.555V29.6H-405.555ZM-405.555 50.34C-405.555 54.3914 -406.929 57.7607 -409.682 60.5129L-408.267 61.9271C-405.126 58.786 -403.555 54.902 -403.555 50.34H-405.555ZM-409.695 60.5269C-412.329 63.266 -415.634 64.64 -419.685 64.64V66.64C-415.122 66.64 -411.287 65.0673 -408.254 61.9131L-409.695 60.5269ZM-419.685 64.64H-430.565V66.64H-419.685V64.64ZM-429.565 65.64V52.38H-431.565V65.64H-429.565ZM-430.565 53.38H-422.405V51.38H-430.565V53.38ZM-422.405 53.38C-420.692 53.38 -419.232 52.8993 -418.219 51.774C-417.224 50.6686 -416.815 49.1096 -416.815 47.28H-418.815C-418.815 48.8503 -419.17 49.8414 -419.705 50.436C-420.223 51.0107 -421.058 51.38 -422.405 51.38V53.38ZM-416.815 47.28V45.24H-418.815V47.28H-416.815ZM-418.166 44.3037C-418.954 44.5993 -419.798 44.75 -420.705 44.75V46.75C-419.571 46.75 -418.488 46.5606 -417.463 46.1763L-418.166 44.3037ZM-420.705 44.75C-422.852 44.75 -424.818 44.3747 -426.614 43.6353L-427.375 45.4847C-425.318 46.332 -423.09 46.75 -420.705 46.75V44.75ZM-426.569 43.6552C-428.393 42.7966 -429.998 41.6728 -431.388 40.2829L-432.802 41.6971C-431.245 43.2539 -429.449 44.5101 -427.42 45.4648L-426.569 43.6552ZM-431.388 40.2829C-432.777 38.893 -433.901 37.2887 -434.76 35.4642L-436.569 36.3158C-435.615 38.3446 -434.359 40.1403 -432.802 41.6971L-431.388 40.2829ZM-434.74 35.5092C-435.479 33.7136 -435.855 31.7476 -435.855 29.6H-437.855C-437.855 31.9857 -437.437 34.2131 -436.589 36.2707L-434.74 35.5092ZM-324.263 80.43L-324.666 81.3453L-324.65 81.3522L-324.634 81.3585L-324.263 80.43ZM-308.793 83.32L-308.898 84.3144L-308.897 84.3145L-308.793 83.32ZM-287.713 91.14L-288.334 91.9241L-288.323 91.932L-287.713 91.14ZM-288.733 129.9L-289.364 129.125L-289.364 129.125L-288.733 129.9ZM-331.403 134.83L-331.746 135.769L-331.403 134.83ZM-342.963 128.54L-343.611 129.301L-343.603 129.308L-343.594 129.315L-342.963 128.54ZM-350.103 120.04L-350.997 120.487L-350.988 120.507L-350.977 120.526L-350.103 120.04ZM-353.333 110.86L-353.644 109.91L-354.481 110.184L-354.315 111.049L-353.333 110.86ZM-333.613 104.4L-332.643 104.157L-332.903 103.115L-333.924 103.45L-333.613 104.4ZM-328.003 113.92L-328.695 114.641L-328.688 114.648L-328.681 114.655L-328.003 113.92ZM-303.693 115.62L-303.057 116.392L-303.053 116.388L-303.693 115.62ZM-301.483 107.12L-302.397 107.526L-302.368 107.59L-302.331 107.65L-301.483 107.12ZM-304.203 104.4L-304.758 105.232L-304.733 105.249L-304.707 105.264L-304.203 104.4ZM-309.813 102.19L-310.055 103.16L-310.044 103.163L-309.813 102.19ZM-318.483 100.83L-318.386 99.8346L-318.4 99.8335L-318.483 100.83ZM-341.263 93.52L-341.865 94.318L-341.856 94.3249L-341.847 94.3315L-341.263 93.52ZM-346.873 63.09L-346.005 63.5861L-346.005 63.5861L-346.873 63.09ZM-339.733 55.1L-339.143 55.9074L-339.133 55.9001L-339.123 55.8926L-339.733 55.1ZM-329.533 50L-329.251 50.9594L-329.251 50.9594L-329.533 50ZM-303.863 50.34L-304.196 51.283L-304.179 51.2888L-304.163 51.294L-303.863 50.34ZM-293.833 55.44L-294.454 56.224L-294.443 56.2322L-294.433 56.24L-293.833 55.44ZM-287.203 62.41L-288.04 62.9563L-288.035 62.9649L-288.029 62.9733L-287.203 62.41ZM-283.293 69.72L-282.919 70.6473L-282.009 70.2804L-282.358 69.364L-283.293 69.72ZM-302.673 77.54L-303.621 77.8562L-303.285 78.8654L-302.299 78.4673L-302.673 77.54ZM-307.943 70.4L-308.531 71.2087L-308.519 71.2177L-308.506 71.2262L-307.943 70.4ZM-325.793 69.72L-325.226 70.544L-325.209 70.5324L-325.193 70.52L-325.793 69.72ZM-329.513 74.48C-329.513 76.0232 -329.107 77.408 -328.264 78.5887C-327.427 79.7612 -326.203 80.6688 -324.666 81.3453L-323.86 79.5147C-325.156 78.9445 -326.057 78.2371 -326.637 77.4263C-327.21 76.6237 -327.513 75.6568 -327.513 74.48H-329.513ZM-324.634 81.3585C-321.658 82.5489 -316.375 83.5214 -308.898 84.3144L-308.687 82.3256C-316.171 81.5319 -321.201 80.5778 -323.891 79.5015L-324.634 81.3585ZM-308.897 84.3145C-300.426 85.2062 -293.592 87.7611 -288.334 91.924L-287.092 90.356C-292.714 85.9056 -299.933 83.2471 -308.688 82.3255L-308.897 84.3145ZM-288.323 91.932C-283.157 95.9142 -280.553 101.499 -280.553 108.82H-278.553C-278.553 100.954 -281.388 94.7524 -287.102 90.348L-288.323 91.932ZM-280.553 108.82V109.84H-278.553V108.82H-280.553ZM-280.553 109.84C-280.553 117.948 -283.494 124.341 -289.364 129.125L-288.101 130.675C-281.732 125.485 -278.553 118.506 -278.553 109.84H-280.553ZM-289.364 129.125C-295.246 133.917 -303.604 136.38 -314.573 136.38V138.38C-303.328 138.38 -294.46 135.856 -288.101 130.675L-289.364 129.125ZM-314.573 136.38C-321.065 136.38 -326.552 135.54 -331.059 133.891L-331.746 135.769C-326.96 137.52 -321.227 138.38 -314.573 138.38V136.38ZM-331.059 133.891C-335.627 132.22 -339.376 130.173 -342.331 127.765L-343.594 129.315C-340.43 131.894 -336.472 134.04 -331.746 135.769L-331.059 133.891ZM-342.314 127.779C-345.297 125.238 -347.595 122.495 -349.229 119.554L-350.977 120.526C-349.211 123.705 -346.749 126.628 -343.611 129.301L-342.314 127.779ZM-349.208 119.593C-350.761 116.487 -351.804 113.514 -352.351 110.671L-354.315 111.049C-353.728 114.1 -352.618 117.247 -350.997 120.487L-349.208 119.593ZM-353.022 111.81L-333.302 105.35L-333.924 103.45L-353.644 109.91L-353.022 111.81ZM-334.583 104.643C-333.628 108.461 -331.657 111.798 -328.695 114.641L-327.31 113.199C-330.015 110.602 -331.784 107.592 -332.643 104.157L-334.583 104.643ZM-328.681 114.655C-325.476 117.613 -320.709 119 -314.573 119V117C-320.45 117 -324.636 115.667 -327.325 113.185L-328.681 114.655ZM-314.573 119C-311.866 119 -309.551 118.799 -307.644 118.382C-305.745 117.967 -304.188 117.323 -303.057 116.392L-304.329 114.848C-305.124 115.503 -306.344 116.05 -308.072 116.428C-309.792 116.804 -311.953 117 -314.573 117V119ZM-303.053 116.388C-300.875 114.574 -299.633 112.504 -299.633 110.18H-301.633C-301.633 111.709 -302.43 113.266 -304.333 114.852L-303.053 116.388ZM-299.633 110.18C-299.633 108.871 -299.963 107.665 -300.635 106.59L-302.331 107.65C-301.87 108.388 -301.633 109.222 -301.633 110.18H-299.633ZM-300.569 106.714C-301.136 105.438 -302.23 104.393 -303.699 103.536L-304.707 105.264C-303.456 105.993 -302.736 106.762 -302.397 107.526L-300.569 106.714ZM-303.648 103.568C-305.143 102.572 -307.138 101.799 -309.581 101.217L-310.044 103.163C-307.728 103.714 -305.983 104.415 -304.758 105.232L-303.648 103.568ZM-309.57 101.22C-311.903 100.637 -314.846 100.177 -318.386 99.8346L-318.579 101.825C-315.093 102.163 -312.256 102.61 -310.055 103.16L-309.57 101.22ZM-318.4 99.8335C-327.803 99.0499 -335.204 96.6504 -340.679 92.7085L-341.847 94.3315C-335.989 98.5496 -328.203 101.023 -318.566 101.827L-318.4 99.8335ZM-340.66 92.722C-345.922 88.7488 -348.593 82.9487 -348.593 75.16H-350.593C-350.593 83.4646 -347.71 89.9045 -341.865 94.318L-340.66 92.722ZM-348.593 75.16V74.14H-350.593V75.16H-348.593ZM-348.593 74.14C-348.593 70.0947 -347.72 66.5873 -346.005 63.5861L-347.741 62.5939C-349.653 65.9394 -350.593 69.7986 -350.593 74.14H-348.593ZM-346.005 63.5861C-344.261 60.5348 -341.976 57.9776 -339.143 55.9074L-340.323 54.2926C-343.383 56.5291 -345.858 59.2985 -347.741 62.5939L-346.005 63.5861ZM-339.123 55.8926C-336.282 53.7072 -332.995 52.0607 -329.251 50.9594L-329.815 49.0406C-333.777 50.206 -337.29 51.9595 -340.343 54.3074L-339.123 55.8926ZM-329.251 50.9594C-325.49 49.8534 -321.619 49.3 -317.633 49.3V47.3C-321.807 47.3 -325.869 47.8799 -329.815 49.0406L-329.251 50.9594ZM-317.633 49.3C-312.387 49.3 -307.915 49.9702 -304.196 51.283L-303.53 49.397C-307.517 47.9898 -312.225 47.3 -317.633 47.3V49.3ZM-304.163 51.294C-300.29 52.5111 -297.061 54.1599 -294.454 56.224L-293.212 54.6559C-296.045 52.4135 -299.502 50.6622 -303.563 49.386L-304.163 51.294ZM-294.433 56.24C-291.798 58.2164 -289.671 60.4561 -288.04 62.9563L-286.365 61.8637C-288.135 59.1506 -290.428 56.7436 -293.233 54.64L-294.433 56.24ZM-288.029 62.9733C-286.365 65.4135 -285.102 67.7811 -284.227 70.076L-282.358 69.364C-283.297 66.8989 -284.64 64.3931 -286.377 61.8467L-288.029 62.9733ZM-283.667 68.7926L-303.047 76.6126L-302.299 78.4673L-282.919 70.6473L-283.667 68.7926ZM-301.724 77.2238C-302.808 73.9714 -304.693 71.4058 -307.379 69.5738L-308.506 71.2262C-306.206 72.7942 -304.577 74.9886 -303.621 77.8562L-301.724 77.2238ZM-307.355 69.5913C-310.062 67.6221 -313.515 66.68 -317.633 66.68V68.68C-313.817 68.68 -310.81 69.5512 -308.531 71.2087L-307.355 69.5913ZM-317.633 66.68C-321.356 66.68 -324.33 67.373 -326.393 68.92L-325.193 70.52C-323.629 69.347 -321.163 68.68 -317.633 68.68V66.68ZM-326.359 68.896C-328.399 70.2984 -329.513 72.1732 -329.513 74.48H-327.513C-327.513 72.9334 -326.813 71.6349 -325.226 70.544L-326.359 68.896ZM-64.5692 135V136H-63.6335L-63.5714 135.066L-64.5692 135ZM-101.629 135L-102.626 135.074L-102.558 136H-101.629V135ZM-106.389 71.08H-107.389V71.1172L-107.386 71.1543L-106.389 71.08ZM-106.389 60.88H-105.389V59.88H-106.389V60.88ZM-110.469 60.88V59.88H-111.469V60.88H-110.469ZM-110.469 71.08L-109.472 71.1543L-109.469 71.1172V71.08H-110.469ZM-115.229 135V136H-114.301L-114.232 135.074L-115.229 135ZM-152.289 135L-153.287 135.066L-153.225 136H-152.289V135ZM-157.899 50.68V49.68H-158.968L-158.897 50.7464L-157.899 50.68ZM-138.179 50.68L-137.181 50.6216L-137.236 49.68H-138.179V50.68ZM-134.439 114.6H-133.439V114.571L-133.441 114.542L-134.439 114.6ZM-134.439 124.8H-135.439V125.8H-134.439V124.8ZM-130.359 124.8V125.8H-129.359V124.8H-130.359ZM-130.359 114.6L-131.357 114.534L-131.359 114.567V114.6H-130.359ZM-126.109 50.68V49.68H-127.045L-127.107 50.6137L-126.109 50.68ZM-90.7492 50.68L-89.7514 50.6137L-89.8135 49.68H-90.7492V50.68ZM-86.4992 114.6H-85.4992V114.567L-85.5014 114.534L-86.4992 114.6ZM-86.4992 124.8H-87.4992V125.8H-86.4992V124.8ZM-82.4192 124.8V125.8H-81.4192V124.8H-82.4192ZM-82.4192 114.6L-83.4175 114.542L-83.4192 114.571V114.6H-82.4192ZM-78.6792 50.68V49.68H-79.6224L-79.6775 50.6216L-78.6792 50.68ZM-58.9592 50.68L-57.9614 50.7464L-57.8905 49.68H-58.9592V50.68ZM-64.5692 134H-101.629V136H-64.5692V134ZM-100.632 134.926L-105.392 71.0057L-107.386 71.1543L-102.626 135.074L-100.632 134.926ZM-105.389 71.08V60.88H-107.389V71.08H-105.389ZM-106.389 59.88H-110.469V61.88H-106.389V59.88ZM-111.469 60.88V71.08H-109.469V60.88H-111.469ZM-111.466 71.0057L-116.226 134.926L-114.232 135.074L-109.472 71.1543L-111.466 71.0057ZM-115.229 134H-152.289V136H-115.229V134ZM-151.291 134.934L-156.901 50.6136L-158.897 50.7464L-153.287 135.066L-151.291 134.934ZM-157.899 51.68H-138.179V49.68H-157.899V51.68ZM-139.178 50.7384L-135.438 114.658L-133.441 114.542L-137.181 50.6216L-139.178 50.7384ZM-135.439 114.6V124.8H-133.439V114.6H-135.439ZM-134.439 125.8H-130.359V123.8H-134.439V125.8ZM-129.359 124.8V114.6H-131.359V124.8H-129.359ZM-129.361 114.666L-125.111 50.7463L-127.107 50.6137L-131.357 114.534L-129.361 114.666ZM-126.109 51.68H-90.7492V49.68H-126.109V51.68ZM-91.747 50.7463L-87.497 114.666L-85.5014 114.534L-89.7514 50.6137L-91.747 50.7463ZM-87.4992 114.6V124.8H-85.4992V114.6H-87.4992ZM-86.4992 125.8H-82.4192V123.8H-86.4992V125.8ZM-81.4192 124.8V114.6H-83.4192V124.8H-81.4192ZM-81.4209 114.658L-77.6809 50.7384L-79.6775 50.6216L-83.4175 114.542L-81.4209 114.658ZM-78.6792 51.68H-58.9592V49.68H-78.6792V51.68ZM-59.957 50.6136L-65.567 134.934L-63.5714 135.066L-57.9614 50.7464L-59.957 50.6136ZM35.9526 112.56L36.8656 112.968L36.8687 112.961L35.9526 112.56ZM26.2626 126.16L26.9269 126.907L26.9327 126.902L26.9383 126.897L26.2626 126.16ZM12.1526 134.49L11.8124 133.55L11.8059 133.552L12.1526 134.49ZM-20.9974 134.49L-21.3441 135.428L-21.3376 135.43L-20.9974 134.49ZM-34.9374 126.16L-35.6131 126.897L-35.6075 126.902L-35.6018 126.907L-34.9374 126.16ZM-44.6274 112.56L-45.5436 112.961L-45.5404 112.968L-44.6274 112.56ZM-44.6274 73.46L-43.7144 73.8679L-43.7113 73.8608L-44.6274 73.46ZM-20.9974 51.19L-21.3376 50.2496L-21.3441 50.252L-20.9974 51.19ZM12.1526 51.19L11.8059 52.128L11.8124 52.1304L12.1526 51.19ZM26.2626 59.69L26.9383 58.9528L26.9383 58.9528L26.2626 59.69ZM35.9526 73.46L35.0364 73.8608L35.0396 73.8679L35.9526 73.46ZM4.33258 115.45L4.68371 116.386L4.68371 116.386L4.33258 115.45ZM11.4726 111.03L12.1592 111.757L12.1592 111.757L11.4726 111.03ZM16.2326 104.06L15.3173 103.657L15.3133 103.666L15.3095 103.675L16.2326 104.06ZM16.2326 81.79L15.3041 82.1614L15.3133 82.1843L15.3235 82.2067L16.2326 81.79ZM4.33258 70.23L4.68371 69.2937L4.68371 69.2937L4.33258 70.23ZM-13.0074 70.23L-12.6563 71.1663L-12.6563 71.1663L-13.0074 70.23ZM-20.1474 74.65L-19.4608 75.377L-19.4608 75.377L-20.1474 74.65ZM-25.0774 81.79L-25.9927 81.3873L-25.9967 81.3963L-26.0005 81.4054L-25.0774 81.79ZM-25.0774 104.06L-26.0059 104.431L-25.9967 104.454L-25.9865 104.477L-25.0774 104.06ZM-20.1474 111.03L-19.4608 110.303L-19.4608 110.303L-20.1474 111.03ZM-13.0074 115.45L-12.6563 114.514L-12.6563 114.514L-13.0074 115.45ZM38.5226 93.86C38.5226 100.774 37.3519 106.867 35.0364 112.159L36.8687 112.961C39.3132 107.373 40.5226 101 40.5226 93.86H38.5226ZM35.0396 112.152C32.7123 117.361 29.5607 121.78 25.5869 125.423L26.9383 126.897C31.1245 123.06 34.4329 118.413 36.8656 112.968L35.0396 112.152ZM25.5982 125.413C21.6166 128.952 17.0243 131.664 11.8124 133.55L12.4927 135.43C17.9342 133.462 22.7485 130.622 26.9269 126.907L25.5982 125.413ZM11.8059 133.552C6.70798 135.436 1.32907 136.38 -4.33742 136.38V138.38C1.5561 138.38 7.17052 137.397 12.4992 135.428L11.8059 133.552ZM-4.33742 136.38C-10.0038 136.38 -15.4419 135.436 -20.6573 133.55L-21.3376 135.43C-15.8996 137.397 -10.231 138.38 -4.33742 138.38V136.38ZM-20.6508 133.552C-25.7494 131.668 -30.2879 128.955 -34.2731 125.413L-35.6018 126.907C-31.427 130.618 -26.6721 133.459 -21.3441 135.428L-20.6508 133.552ZM-34.2617 125.423C-38.2355 121.78 -41.3871 117.361 -43.7144 112.152L-45.5404 112.968C-43.1077 118.413 -39.7993 123.06 -35.6131 126.897L-34.2617 125.423ZM-43.7113 112.159C-46.0268 106.867 -47.1974 100.774 -47.1974 93.86H-49.1974C-49.1974 101 -47.9881 107.373 -45.5436 112.961L-43.7113 112.159ZM-47.1974 93.86V91.82H-49.1974V93.86H-47.1974ZM-47.1974 91.82C-47.1974 85.0216 -46.0275 79.0447 -43.7144 73.8679L-45.5404 73.0521C-47.9874 78.5286 -49.1974 84.7917 -49.1974 91.82H-47.1974ZM-43.7113 73.8608C-41.383 68.539 -38.2317 64.0663 -34.2617 60.4272L-35.6131 58.9528C-39.8032 62.7937 -43.1119 67.501 -45.5436 73.0592L-43.7113 73.8608ZM-34.2617 60.4272C-30.2777 56.7752 -25.7429 54.0099 -20.6508 52.128L-21.3441 50.252C-26.6786 52.2234 -31.4371 55.1248 -35.6131 58.9528L-34.2617 60.4272ZM-20.6573 52.1304C-15.4419 50.244 -10.0038 49.3 -4.33742 49.3V47.3C-10.231 47.3 -15.8996 48.2827 -21.3376 50.2496L-20.6573 52.1304ZM-4.33742 49.3C1.32907 49.3 6.70798 50.244 11.8059 52.128L12.4992 50.252C7.17052 48.2827 1.5561 47.3 -4.33742 47.3V49.3ZM11.8124 52.1304C17.0179 54.0132 21.6065 56.7785 25.5869 60.4272L26.9383 58.9528C22.7587 55.1215 17.9406 52.2201 12.4927 50.2496L11.8124 52.1304ZM25.5869 60.4272C29.5568 64.0663 32.7081 68.539 35.0364 73.8608L36.8687 73.0592C34.437 67.501 31.1283 62.7937 26.9383 58.9528L25.5869 60.4272ZM35.0396 73.8679C37.3526 79.0447 38.5226 85.0216 38.5226 91.82H40.5226C40.5226 84.7917 39.3126 78.5286 36.8656 73.0521L35.0396 73.8679ZM38.5226 91.82V93.86H40.5226V91.82H38.5226ZM-4.33742 117.98C-1.16398 117.98 1.84552 117.451 4.68371 116.386L3.98146 114.514C1.37964 115.489 -1.39086 115.98 -4.33742 115.98V117.98ZM4.68371 116.386C7.52387 115.321 10.019 113.778 12.1592 111.757L10.786 110.303C8.84617 112.135 6.5813 113.539 3.98146 114.514L4.68371 116.386ZM12.1592 111.757C14.3063 109.729 15.9711 107.287 17.1557 104.445L15.3095 103.675C14.2273 106.273 12.7189 108.477 10.786 110.303L12.1592 111.757ZM17.1479 104.463C18.4575 101.486 19.1026 98.1733 19.1026 94.54H17.1026C17.1026 97.9334 16.501 100.967 15.3173 103.657L17.1479 104.463ZM19.1026 94.54V91.14H17.1026V94.54H19.1026ZM19.1026 91.14C19.1026 87.5077 18.4578 84.2449 17.1416 81.3733L15.3235 82.2067C16.5007 84.7751 17.1026 87.7457 17.1026 91.14H19.1026ZM17.1611 81.4186C15.9786 78.4625 14.3136 75.9577 12.1592 73.923L10.786 75.377C12.7115 77.1956 14.2199 79.4508 15.3041 82.1614L17.1611 81.4186ZM12.1592 73.923C10.019 71.9017 7.52387 70.3587 4.68371 69.2937L3.98146 71.1663C6.5813 72.1413 8.84617 73.545 10.786 75.377L12.1592 73.923ZM4.68371 69.2937C1.84552 68.2294 -1.16398 67.7 -4.33742 67.7V69.7C-1.39086 69.7 1.37964 70.1906 3.98146 71.1663L4.68371 69.2937ZM-4.33742 67.7C-7.51086 67.7 -10.5204 68.2294 -13.3585 69.2937L-12.6563 71.1663C-10.0545 70.1906 -7.28398 69.7 -4.33742 69.7V67.7ZM-13.3585 69.2937C-16.1987 70.3587 -18.6938 71.9017 -20.834 73.923L-19.4608 75.377C-17.521 73.545 -15.2561 72.1413 -12.6563 71.1663L-13.3585 69.2937ZM-20.834 73.923C-22.9807 75.9504 -24.6978 78.4443 -25.9927 81.3873L-24.1621 82.1927C-22.9637 79.469 -21.3941 77.2029 -19.4608 75.377L-20.834 73.923ZM-26.0005 81.4054C-27.1934 84.2683 -27.7774 87.5195 -27.7774 91.14H-25.7774C-25.7774 87.7338 -25.2281 84.7517 -24.1543 82.1746L-26.0005 81.4054ZM-27.7774 91.14V94.54H-25.7774V91.14H-27.7774ZM-27.7774 94.54C-27.7774 98.1615 -27.1931 101.463 -26.0059 104.431L-24.1489 103.689C-25.2284 100.99 -25.7774 97.9451 -25.7774 94.54H-27.7774ZM-25.9865 104.477C-24.6899 107.306 -22.9735 109.736 -20.834 111.757L-19.4608 110.303C-21.4013 108.47 -22.9716 106.254 -24.1684 103.643L-25.9865 104.477ZM-20.834 111.757C-18.6938 113.778 -16.1987 115.321 -13.3585 116.386L-12.6563 114.514C-15.2561 113.539 -17.521 112.135 -19.4608 110.303L-20.834 111.757ZM-13.3585 116.386C-10.5204 117.451 -7.51086 117.98 -4.33742 117.98V115.98C-7.28398 115.98 -10.0545 115.489 -12.6563 114.514L-13.3585 116.386ZM56.9144 50.68V49.68H55.9144V50.68H56.9144ZM92.6144 50.68H93.6144V49.68H92.6144V50.68ZM92.6144 62.92H91.6144V63.92H92.6144V62.92ZM95.6744 62.92V63.92H96.3896L96.6207 63.2431L95.6744 62.92ZM103.664 52.21L104.219 53.0421L104.225 53.0383L103.664 52.21ZM137.664 56.29L136.942 56.9816L136.95 56.9893L137.664 56.29ZM145.314 84L145.406 84.9958L146.314 84.9119V84H145.314ZM123.214 86.04H122.214V87.1366L123.306 87.0358L123.214 86.04ZM119.644 72.61L118.879 73.2532L118.885 73.2609L118.892 73.2685L119.644 72.61ZM97.7144 73.29L96.944 72.6524L96.944 72.6524L97.7144 73.29ZM93.6344 114.6H92.6344V115.6H93.6344V114.6ZM113.014 114.6H114.014V113.6H113.014V114.6ZM113.014 135V136H114.014V135H113.014ZM54.8744 135H53.8744V136H54.8744V135ZM54.8744 114.6V113.6H53.8744V114.6H54.8744ZM72.2144 114.6V115.6H73.2144V114.6H72.2144ZM72.2144 71.08H73.2144V70.08H72.2144V71.08ZM56.9144 71.08H55.9144V72.08H56.9144V71.08ZM56.9144 51.68H92.6144V49.68H56.9144V51.68ZM91.6144 50.68V62.92H93.6144V50.68H91.6144ZM92.6144 63.92H95.6744V61.92H92.6144V63.92ZM96.6207 63.2431C98.1433 58.7842 100.679 55.402 104.219 53.042L103.11 51.3779C99.1696 54.0047 96.3788 57.7625 94.728 62.5969L96.6207 63.2431ZM104.225 53.0383C107.889 50.5592 112.278 49.3 117.434 49.3V47.3C111.938 47.3 107.146 48.6475 103.104 51.3817L104.225 53.0383ZM117.434 49.3C125.589 49.3 132.057 51.8797 136.942 56.9816L138.387 55.5984C133.071 50.047 126.053 47.3 117.434 47.3V49.3ZM136.95 56.9893C141.796 61.943 144.314 69.6313 144.314 80.26H146.314C146.314 69.3553 143.733 61.0637 138.379 55.5907L136.95 56.9893ZM144.314 80.26V84H146.314V80.26H144.314ZM145.222 83.0042L123.122 85.0442L123.306 87.0358L145.406 84.9958L145.222 83.0042ZM124.214 86.04V83.66H122.214V86.04H124.214ZM124.214 83.66C124.214 78.8421 122.978 74.9009 120.397 71.9515L118.892 73.2685C121.071 75.7591 122.214 79.1846 122.214 83.66H124.214ZM120.41 71.9668C117.788 68.8458 113.899 67.36 108.934 67.36V69.36C113.49 69.36 116.74 70.7076 118.879 73.2532L120.41 71.9668ZM108.934 67.36C103.915 67.36 99.8775 69.1078 96.944 72.6524L98.4848 73.9276C100.991 70.8989 104.433 69.36 108.934 69.36V67.36ZM96.944 72.6524C94.0228 76.1822 92.6344 81.1462 92.6344 87.4H94.6344C94.6344 81.4138 95.966 76.9711 98.4848 73.9276L96.944 72.6524ZM92.6344 87.4V114.6H94.6344V87.4H92.6344ZM93.6344 115.6H113.014V113.6H93.6344V115.6ZM112.014 114.6V135H114.014V114.6H112.014ZM113.014 134H54.8744V136H113.014V134ZM55.8744 135V114.6H53.8744V135H55.8744ZM54.8744 115.6H72.2144V113.6H54.8744V115.6ZM73.2144 114.6V71.08H71.2144V114.6H73.2144ZM72.2144 70.08H56.9144V72.08H72.2144V70.08ZM57.9144 71.08V50.68H55.9144V71.08H57.9144ZM193.306 81.62H192.306V82.62H193.306V81.62ZM197.386 81.62V82.62H197.896L198.196 82.2071L197.386 81.62ZM219.826 50.68V49.68H219.316L219.017 50.0929L219.826 50.68ZM243.286 50.68H244.286V49.68H243.286V50.68ZM243.286 51.7L244.104 52.2761L244.286 52.017V51.7H243.286ZM216.086 90.29L215.269 89.7139L215.086 89.973V90.29H216.086ZM216.086 93.35H215.086V93.6785L215.281 93.943L216.086 93.35ZM246.006 133.98H247.006V133.652L246.811 133.387L246.006 133.98ZM246.006 135V136H247.006V135H246.006ZM221.526 135L220.719 135.591L221.019 136H221.526V135ZM197.386 102.02L198.193 101.429L197.893 101.02H197.386V102.02ZM193.306 102.02V101.02H192.306V102.02H193.306ZM193.306 135V136H194.306V135H193.306ZM171.886 135H170.886V136H171.886V135ZM171.886 16V15H170.886V16H171.886ZM193.306 16H194.306V15H193.306V16ZM193.306 82.62H197.386V80.62H193.306V82.62ZM198.196 82.2071L220.636 51.2671L219.017 50.0929L196.577 81.0329L198.196 82.2071ZM219.826 51.68H243.286V49.68H219.826V51.68ZM242.286 50.68V51.7H244.286V50.68H242.286ZM242.469 51.1239L215.269 89.7139L216.904 90.8661L244.104 52.2761L242.469 51.1239ZM215.086 90.29V93.35H217.086V90.29H215.086ZM215.281 93.943L245.201 134.573L246.811 133.387L216.891 92.757L215.281 93.943ZM245.006 133.98V135H247.006V133.98H245.006ZM246.006 134H221.526V136H246.006V134ZM222.333 134.409L198.193 101.429L196.579 102.611L220.719 135.591L222.333 134.409ZM197.386 101.02H193.306V103.02H197.386V101.02ZM192.306 102.02V135H194.306V102.02H192.306ZM193.306 134H171.886V136H193.306V134ZM172.886 135V16H170.886V135H172.886ZM171.886 17H193.306V15H171.886V17ZM192.306 16V81.62H194.306V16H192.306ZM322.728 127.69L321.814 127.284L321.809 127.296L321.803 127.309L322.728 127.69ZM319.328 132.79L320.006 133.525L320.021 133.511L320.035 133.497L319.328 132.79ZM314.058 136.02L313.696 135.088L313.663 135.1L313.632 135.115L314.058 136.02ZM301.648 136.02L302.074 135.115L302.051 135.105L302.029 135.095L301.648 136.02ZM296.548 132.79L295.841 133.497L295.855 133.511L295.87 133.525L296.548 132.79ZM292.978 127.69L292.046 128.052L292.058 128.085L292.073 128.116L292.978 127.69ZM292.978 114.94L292.064 114.534L292.059 114.546L292.053 114.559L292.978 114.94ZM296.548 109.84L297.226 110.575L297.241 110.561L297.255 110.547L296.548 109.84ZM301.648 106.44L302.029 107.365L302.051 107.355L302.074 107.345L301.648 106.44ZM314.058 106.44L313.632 107.345L313.663 107.36L313.696 107.372L314.058 106.44ZM319.328 109.84L318.621 110.547L318.635 110.561L318.65 110.575L319.328 109.84ZM322.728 114.94L321.796 115.302L321.808 115.335L321.823 115.366L322.728 114.94ZM323.088 121.23C323.088 123.359 322.663 125.374 321.814 127.284L323.642 128.096C324.606 125.926 325.088 123.634 325.088 121.23H323.088ZM321.803 127.309C321.06 129.114 320.001 130.703 318.621 132.083L320.035 133.497C321.602 131.93 322.809 130.119 323.653 128.071L321.803 127.309ZM318.65 132.055C317.276 133.323 315.63 134.336 313.696 135.088L314.42 136.952C316.566 136.117 318.433 134.977 320.006 133.525L318.65 132.055ZM313.632 135.115C311.84 135.958 309.946 136.38 307.938 136.38V138.38C310.237 138.38 312.422 137.895 314.484 136.925L313.632 135.115ZM307.938 136.38C305.809 136.38 303.859 135.955 302.074 135.115L301.222 136.925C303.291 137.898 305.534 138.38 307.938 138.38V136.38ZM302.029 135.095C300.207 134.345 298.609 133.332 297.226 132.055L295.87 133.525C297.434 134.968 299.235 136.108 301.267 136.945L302.029 135.095ZM297.255 132.083C295.865 130.693 294.741 129.089 293.883 127.264L292.073 128.116C293.028 130.145 294.284 131.94 295.841 133.497L297.255 132.083ZM293.91 127.328C293.163 125.407 292.788 123.377 292.788 121.23H290.788C290.788 123.616 291.206 125.893 292.046 128.052L293.91 127.328ZM292.788 121.23C292.788 119.082 293.163 117.116 293.903 115.321L292.053 114.559C291.206 116.617 290.788 118.844 290.788 121.23H292.788ZM293.892 115.346C294.749 113.416 295.864 111.832 297.226 110.575L295.87 109.105C294.286 110.568 293.02 112.384 292.064 114.534L293.892 115.346ZM297.255 110.547C298.635 109.167 300.224 108.108 302.029 107.365L301.267 105.515C299.218 106.359 297.408 107.566 295.841 109.133L297.255 110.547ZM302.074 107.345C303.859 106.505 305.809 106.08 307.938 106.08V104.08C305.534 104.08 303.291 104.562 301.222 105.535L302.074 107.345ZM307.938 106.08C309.946 106.08 311.84 106.502 313.632 107.345L314.484 105.535C312.422 104.565 310.237 104.08 307.938 104.08V106.08ZM313.696 107.372C315.613 108.118 317.251 109.177 318.621 110.547L320.035 109.133C318.459 107.557 316.583 106.349 314.42 105.508L313.696 107.372ZM318.65 110.575C320.001 111.822 321.053 113.391 321.796 115.302L323.66 114.578C322.817 112.409 321.601 110.578 320.006 109.105L318.65 110.575ZM321.823 115.366C322.663 117.151 323.088 119.101 323.088 121.23H325.088C325.088 118.826 324.606 116.583 323.633 114.514L321.823 115.366ZM476.852 114.6V113.6H475.852V114.6H476.852ZM506.432 114.6V115.6H507.432V114.6H506.432ZM506.432 36.4H507.432V35.4H506.432V36.4ZM477.872 36.4H476.872V37.4H477.872V36.4ZM477.872 16V15H476.872V16H477.872ZM527.852 16H528.852V15H527.852V16ZM527.852 114.6H526.852V115.6H527.852V114.6ZM555.392 114.6H556.392V113.6H555.392V114.6ZM555.392 135V136H556.392V135H555.392ZM476.852 135H475.852V136H476.852V135ZM476.852 115.6H506.432V113.6H476.852V115.6ZM507.432 114.6V36.4H505.432V114.6H507.432ZM506.432 35.4H477.872V37.4H506.432V35.4ZM478.872 36.4V16H476.872V36.4H478.872ZM477.872 17H527.852V15H477.872V17ZM526.852 16V114.6H528.852V16H526.852ZM527.852 115.6H555.392V113.6H527.852V115.6ZM554.392 114.6V135H556.392V114.6H554.392ZM555.392 134H476.852V136H555.392V134ZM477.852 135V114.6H475.852V135H477.852ZM600.323 99.81V98.81H599.277L599.324 99.8554L600.323 99.81ZM602.023 106.78L601.12 107.208L601.133 107.237L601.149 107.266L602.023 106.78ZM606.443 112.22L605.785 112.973L605.81 112.994L605.836 113.014L606.443 112.22ZM612.903 115.79L612.547 116.724L612.574 116.734L612.6 116.743L612.903 115.79ZM632.963 114.26L633.502 115.102L633.514 115.095L633.526 115.087L632.963 114.26ZM639.083 107.46L639.569 106.586L638.64 106.07L638.181 107.029L639.083 107.46ZM657.443 117.66L658.347 118.088L658.748 117.241L657.929 116.786L657.443 117.66ZM653.193 124.46L653.974 125.085L653.982 125.075L653.989 125.066L653.193 124.46ZM646.053 130.75L645.506 129.913L645.499 129.918L645.491 129.923L646.053 130.75ZM635.513 135.51L635.228 134.551L635.221 134.554L635.513 135.51ZM603.723 134.32L603.359 135.251L603.359 135.251L603.723 134.32ZM590.123 125.48L589.406 126.176L589.411 126.182L589.416 126.187L590.123 125.48ZM581.283 111.37L580.345 111.715L580.348 111.723L580.351 111.732L581.283 111.37ZM581.453 73.8L580.533 73.4084L580.53 73.4168L580.526 73.4252L581.453 73.8ZM590.633 60.2L589.937 59.4824L589.937 59.4824L590.633 60.2ZM604.063 51.53L604.435 52.4585L604.445 52.4543L604.063 51.53ZM639.423 52.21L638.976 53.1044L638.984 53.1083L638.992 53.1121L639.423 52.21ZM652.343 61.9L651.584 62.5508L651.589 62.5562L651.594 62.5616L652.343 61.9ZM659.823 74.82L658.875 75.1362L658.877 75.1431L659.823 74.82ZM662.203 99.81V100.81H663.203V99.81H662.203ZM607.293 71.93L607.918 72.7109L607.926 72.7046L607.934 72.6982L607.293 71.93ZM600.663 81.45L599.701 81.1792L599.343 82.45H600.663V81.45ZM640.443 81.45V82.45H641.629L641.429 81.281L640.443 81.45ZM633.983 71.59L633.388 72.3931L633.394 72.3976L633.4 72.402L633.983 71.59ZM599.324 99.8554C599.443 102.475 600.04 104.929 601.12 107.208L602.927 106.352C601.967 104.324 601.43 102.132 601.322 99.7646L599.324 99.8554ZM601.149 107.266C602.34 109.41 603.888 111.313 605.785 112.973L607.102 111.467C605.372 109.954 603.973 108.23 602.898 106.294L601.149 107.266ZM605.836 113.014C607.843 114.549 610.082 115.785 612.547 116.724L613.259 114.856C610.965 113.981 608.897 112.838 607.051 111.426L605.836 113.014ZM612.6 116.743C615.195 117.569 617.905 117.98 620.723 117.98V115.98C618.102 115.98 615.598 115.598 613.207 114.837L612.6 116.743ZM620.723 117.98C626.139 117.98 630.44 117.062 633.502 115.102L632.424 113.418C629.82 115.084 625.961 115.98 620.723 115.98V117.98ZM633.526 115.087C636.478 113.079 638.649 110.685 639.985 107.891L638.181 107.029C637.024 109.448 635.115 111.587 632.401 113.433L633.526 115.087ZM638.598 108.334L656.958 118.534L657.929 116.786L639.569 106.586L638.598 108.334ZM656.54 117.232C655.556 119.309 654.179 121.516 652.398 123.854L653.989 125.066C655.834 122.644 657.291 120.318 658.347 118.088L656.54 117.232ZM652.412 123.835C650.678 126.004 648.382 128.032 645.506 129.913L646.601 131.587C649.618 129.614 652.082 127.449 653.974 125.085L652.412 123.835ZM645.491 129.923C642.763 131.778 639.349 133.326 635.228 134.551L635.798 136.469C640.064 135.2 643.677 133.575 646.616 131.577L645.491 129.923ZM635.221 134.554C631.259 135.764 626.546 136.38 621.063 136.38V138.38C626.688 138.38 631.607 137.749 635.806 136.466L635.221 134.554ZM621.063 136.38C614.825 136.38 609.171 135.378 604.088 133.389L603.359 135.251C608.703 137.342 614.609 138.38 621.063 138.38V136.38ZM604.088 133.389C598.999 131.398 594.584 128.526 590.83 124.773L589.416 126.187C593.37 130.141 598.021 133.162 603.359 135.251L604.088 133.389ZM590.841 124.784C587.204 121.036 584.326 116.451 582.216 111.008L580.351 111.732C582.547 117.396 585.563 122.217 589.406 126.176L590.841 124.784ZM582.222 111.025C580.229 105.601 579.223 99.4306 579.223 92.5H577.223C577.223 99.6228 578.257 106.032 580.345 111.715L582.222 111.025ZM579.223 92.5V91.48H577.223V92.5H579.223ZM579.223 91.48C579.223 85.1325 580.281 79.3684 582.38 74.1748L580.526 73.4252C578.319 78.8849 577.223 84.9075 577.223 91.48H579.223ZM582.374 74.1916C584.592 68.9777 587.579 64.5578 591.33 60.9176L589.937 59.4824C585.981 63.3222 582.848 67.969 580.533 73.4084L582.374 74.1916ZM591.33 60.9176C595.087 57.2705 599.453 54.4512 604.435 52.4585L603.692 50.6015C598.474 52.6888 593.886 55.6495 589.937 59.4824L591.33 60.9176ZM604.445 52.4543C609.532 50.3532 614.955 49.3 620.723 49.3V47.3C614.705 47.3 609.021 48.4002 603.682 50.6057L604.445 52.4543ZM620.723 49.3C627.859 49.3 633.931 50.5821 638.976 53.1044L639.871 51.3156C634.489 48.6246 628.095 47.3 620.723 47.3V49.3ZM638.992 53.1121C644.093 55.5518 648.284 58.7005 651.584 62.5508L653.103 61.2492C649.603 57.1661 645.18 53.8548 639.855 51.3079L638.992 53.1121ZM651.594 62.5616C654.907 66.3168 657.331 70.5067 658.875 75.1362L660.772 74.5038C659.142 69.6133 656.58 65.1898 653.093 61.2384L651.594 62.5616ZM658.877 75.1431C660.432 79.6972 661.203 84.1214 661.203 88.42H663.203C663.203 83.8786 662.388 79.2361 660.77 74.4969L658.877 75.1431ZM661.203 88.42V99.81H663.203V88.42H661.203ZM662.203 98.81H600.323V100.81H662.203V98.81ZM620.553 66.68C614.935 66.68 610.271 68.1466 606.653 71.1618L607.934 72.6982C611.115 70.0467 615.292 68.68 620.553 68.68V66.68ZM606.669 71.1491C603.132 73.9786 600.786 77.3212 599.701 81.1792L601.626 81.7207C602.581 78.3254 604.655 75.3214 607.918 72.7109L606.669 71.1491ZM600.663 82.45H640.443V80.45H600.663V82.45ZM641.429 81.281C640.7 77.0261 638.381 73.5195 634.567 70.778L633.4 72.402C636.839 74.8738 638.827 77.9406 639.458 81.619L641.429 81.281ZM634.579 70.7869C630.855 68.024 626.155 66.68 620.553 66.68V68.68C625.832 68.68 630.085 69.9427 633.388 72.3931L634.579 70.7869ZM683.165 50.68V49.68H682.165V50.68H683.165ZM708.155 50.68V51.68H709.155V50.68H708.155ZM708.155 16V15H707.155V16H708.155ZM729.575 16H730.575V15H729.575V16ZM729.575 50.68H728.575V51.68H729.575V50.68ZM760.005 50.68H761.005V49.68H760.005V50.68ZM760.005 71.08V72.08H761.005V71.08H760.005ZM729.575 71.08V70.08H728.575V71.08H729.575ZM756.945 114.6H757.945V113.6H756.945V114.6ZM756.945 135V136H757.945V135H756.945ZM711.725 131.26L711.002 131.95L711.01 131.959L711.018 131.967L711.725 131.26ZM708.155 71.08H709.155V70.08H708.155V71.08ZM683.165 71.08H682.165V72.08H683.165V71.08ZM683.165 51.68H708.155V49.68H683.165V51.68ZM709.155 50.68V16H707.155V50.68H709.155ZM708.155 17H729.575V15H708.155V17ZM728.575 16V50.68H730.575V16H728.575ZM729.575 51.68H760.005V49.68H729.575V51.68ZM759.005 50.68V71.08H761.005V50.68H759.005ZM760.005 70.08H729.575V72.08H760.005V70.08ZM728.575 71.08V109.5H730.575V71.08H728.575ZM728.575 109.5C728.575 111.33 728.985 112.889 729.979 113.994C730.992 115.119 732.452 115.6 734.165 115.6V113.6C732.818 113.6 731.983 113.231 731.466 112.656C730.931 112.061 730.575 111.07 730.575 109.5H728.575ZM734.165 115.6H756.945V113.6H734.165V115.6ZM755.945 114.6V135H757.945V114.6H755.945ZM756.945 134H721.245V136H756.945V134ZM721.245 134C717.63 134 714.72 132.84 712.432 130.553L711.018 131.967C713.717 134.666 717.154 136 721.245 136V134ZM712.449 130.57C710.268 128.285 709.155 125.369 709.155 121.74H707.155C707.155 125.818 708.423 129.249 711.002 131.95L712.449 130.57ZM709.155 121.74V71.08H707.155V121.74H709.155ZM708.155 70.08H683.165V72.08H708.155V70.08ZM684.165 71.08V50.68H682.165V71.08H684.165ZM813.437 23.48L812.523 23.0739L812.518 23.0865L812.512 23.0992L813.437 23.48ZM817.007 18.38L817.685 19.1148L817.7 19.1012L817.714 19.0871L817.007 18.38ZM822.107 14.98L822.488 15.9047L822.51 15.8953L822.533 15.8848L822.107 14.98ZM834.517 14.98L834.091 15.8848L834.122 15.8995L834.155 15.912L834.517 14.98ZM839.787 18.38L839.08 19.0871L839.094 19.1012L839.109 19.1148L839.787 18.38ZM843.187 23.48L842.255 23.8424L842.267 23.8746L842.282 23.9058L843.187 23.48ZM840.127 61.22L839.42 60.5129L839.413 60.5198L839.406 60.5269L840.127 61.22ZM818.537 65.64H817.537V66.64H818.537V65.64ZM818.537 52.38V51.38H817.537V52.38H818.537ZM831.287 45.24H832.287V43.797L830.936 44.3037L831.287 45.24ZM822.107 44.56L821.681 45.4648L821.703 45.4753L821.726 45.4847L822.107 44.56ZM813.437 35.89L812.512 36.2707L812.522 36.2935L812.532 36.3158L813.437 35.89ZM813.247 29.6C813.247 27.5728 813.62 25.6626 814.362 23.8607L812.512 23.0992C811.668 25.1507 811.247 27.3205 811.247 29.6H813.247ZM814.351 23.8861C815.208 21.9564 816.323 20.3725 817.685 19.1148L816.329 17.6452C814.744 19.1075 813.479 20.9236 812.523 23.0739L814.351 23.8861ZM817.714 19.0871C819.094 17.7071 820.683 16.6477 822.488 15.9047L821.726 14.0553C819.677 14.8989 817.867 16.1062 816.3 17.6729L817.714 19.0871ZM822.533 15.8848C824.318 15.0448 826.268 14.62 828.397 14.62V12.62C825.993 12.62 823.75 13.1018 821.681 14.0752L822.533 15.8848ZM828.397 14.62C830.405 14.62 832.299 15.0416 834.091 15.8848L834.943 14.0752C832.881 13.1051 830.696 12.62 828.397 12.62V14.62ZM834.155 15.912C836.072 16.6577 837.709 17.7167 839.08 19.0871L840.494 17.6729C838.918 16.0966 837.042 14.889 834.879 14.048L834.155 15.912ZM839.109 19.1148C840.46 20.3624 841.512 21.931 842.255 23.8424L844.119 23.1176C843.276 20.949 842.06 19.1176 840.465 17.6452L839.109 19.1148ZM842.282 23.9058C843.125 25.6977 843.547 27.5922 843.547 29.6H845.547C845.547 27.3012 845.062 25.1156 844.092 23.0542L842.282 23.9058ZM843.547 29.6V50.34H845.547V29.6H843.547ZM843.547 50.34C843.547 54.3914 842.172 57.7607 839.42 60.5129L840.834 61.9271C843.975 58.786 845.547 54.902 845.547 50.34H843.547ZM839.406 60.5269C836.772 63.266 833.468 64.64 829.417 64.64V66.64C833.979 66.64 837.815 65.0673 840.848 61.9131L839.406 60.5269ZM829.417 64.64H818.537V66.64H829.417V64.64ZM819.537 65.64V52.38H817.537V65.64H819.537ZM818.537 53.38H826.697V51.38H818.537V53.38ZM826.697 53.38C828.41 53.38 829.87 52.8993 830.883 51.774C831.878 50.6686 832.287 49.1096 832.287 47.28H830.287C830.287 48.8503 829.931 49.8414 829.396 50.436C828.879 51.0107 828.044 51.38 826.697 51.38V53.38ZM832.287 47.28V45.24H830.287V47.28H832.287ZM830.936 44.3037C830.147 44.5993 829.304 44.75 828.397 44.75V46.75C829.53 46.75 830.613 46.5606 831.638 46.1763L830.936 44.3037ZM828.397 44.75C826.249 44.75 824.283 44.3747 822.488 43.6353L821.726 45.4847C823.784 46.332 826.011 46.75 828.397 46.75V44.75ZM822.533 43.6552C820.708 42.7966 819.104 41.6728 817.714 40.2829L816.3 41.6971C817.857 43.2539 819.652 44.5101 821.681 45.4648L822.533 43.6552ZM817.714 40.2829C816.324 38.893 815.2 37.2887 814.342 35.4642L812.532 36.3158C813.487 38.3446 814.743 40.1403 816.3 41.6971L817.714 40.2829ZM814.362 35.5092C813.622 33.7136 813.247 31.7476 813.247 29.6H811.247C811.247 31.9857 811.665 34.2131 812.512 36.2707L814.362 35.5092ZM924.839 80.43L924.436 81.3453L924.452 81.3522L924.467 81.3585L924.839 80.43ZM940.309 83.32L940.203 84.3144L940.204 84.3145L940.309 83.32ZM961.389 91.14L960.768 91.9241L960.778 91.932L961.389 91.14ZM960.369 129.9L959.737 129.125L959.737 129.125L960.369 129.9ZM917.699 134.83L917.355 135.769L917.699 134.83ZM906.139 128.54L905.49 129.301L905.499 129.308L905.507 129.315L906.139 128.54ZM898.999 120.04L898.104 120.487L898.114 120.507L898.125 120.526L898.999 120.04ZM895.769 110.86L895.457 109.91L894.62 110.184L894.787 111.049L895.769 110.86ZM915.489 104.4L916.459 104.157L916.198 103.115L915.177 103.45L915.489 104.4ZM921.099 113.92L920.406 114.641L920.413 114.648L920.42 114.655L921.099 113.92ZM945.409 115.62L946.044 116.392L946.049 116.388L945.409 115.62ZM947.619 107.12L946.705 107.526L946.733 107.59L946.771 107.65L947.619 107.12ZM944.899 104.4L944.344 105.232L944.369 105.249L944.395 105.264L944.899 104.4ZM939.289 102.19L939.046 103.16L939.057 103.163L939.289 102.19ZM930.619 100.83L930.715 99.8346L930.702 99.8335L930.619 100.83ZM907.839 93.52L907.236 94.318L907.245 94.3249L907.254 94.3315L907.839 93.52ZM902.229 63.09L903.097 63.5861L903.097 63.5861L902.229 63.09ZM909.369 55.1L909.959 55.9074L909.969 55.9001L909.978 55.8926L909.369 55.1ZM919.569 50L919.851 50.9594L919.851 50.9594L919.569 50ZM945.239 50.34L944.906 51.283L944.922 51.2888L944.939 51.294L945.239 50.34ZM955.269 55.44L954.648 56.224L954.658 56.2322L954.669 56.24L955.269 55.44ZM961.899 62.41L961.061 62.9563L961.067 62.9649L961.073 62.9733L961.899 62.41ZM965.809 69.72L966.183 70.6473L967.092 70.2804L966.743 69.364L965.809 69.72ZM946.429 77.54L945.48 77.8562L945.816 78.8654L946.803 78.4673L946.429 77.54ZM941.159 70.4L940.571 71.2087L940.583 71.2177L940.595 71.2262L941.159 70.4ZM923.309 69.72L923.875 70.544L923.892 70.5324L923.909 70.52L923.309 69.72ZM919.589 74.48C919.589 76.0232 919.994 77.408 920.838 78.5887C921.675 79.7612 922.899 80.6688 924.436 81.3453L925.241 79.5147C923.946 78.9445 923.044 78.2371 922.465 77.4263C921.892 76.6237 921.589 75.6568 921.589 74.48H919.589ZM924.467 81.3585C927.443 82.5489 932.727 83.5214 940.203 84.3144L940.414 82.3256C932.931 81.5319 927.901 80.5778 925.21 79.5015L924.467 81.3585ZM940.204 84.3145C948.676 85.2062 955.51 87.7611 960.768 91.924L962.009 90.356C956.388 85.9056 949.169 83.2471 940.413 82.3255L940.204 84.3145ZM960.778 91.932C965.944 95.9142 968.549 101.499 968.549 108.82H970.549C970.549 100.954 967.713 94.7524 961.999 90.348L960.778 91.932ZM968.549 108.82V109.84H970.549V108.82H968.549ZM968.549 109.84C968.549 117.948 965.608 124.341 959.737 129.125L961 130.675C967.37 125.485 970.549 118.506 970.549 109.84H968.549ZM959.737 129.125C953.856 133.917 945.497 136.38 934.529 136.38V138.38C945.773 138.38 954.642 135.856 961 130.675L959.737 129.125ZM934.529 136.38C928.036 136.38 922.549 135.54 918.042 133.891L917.355 135.769C922.141 137.52 927.874 138.38 934.529 138.38V136.38ZM918.042 133.891C913.475 132.22 909.725 130.173 906.77 127.765L905.507 129.315C908.672 131.894 912.629 134.04 917.355 135.769L918.042 133.891ZM906.787 127.779C903.805 125.238 901.507 122.495 899.873 119.554L898.125 120.526C899.891 123.705 902.353 126.628 905.49 129.301L906.787 127.779ZM899.893 119.593C898.34 116.487 897.297 113.514 896.751 110.671L894.787 111.049C895.373 114.1 896.484 117.247 898.104 120.487L899.893 119.593ZM896.08 111.81L915.8 105.35L915.177 103.45L895.457 109.91L896.08 111.81ZM914.519 104.643C915.473 108.461 917.444 111.798 920.406 114.641L921.791 113.199C919.086 110.602 917.318 107.592 916.459 104.157L914.519 104.643ZM920.42 114.655C923.625 117.613 928.393 119 934.529 119V117C928.651 117 924.465 115.667 921.777 113.185L920.42 114.655ZM934.529 119C937.236 119 939.551 118.799 941.457 118.382C943.356 117.967 944.914 117.323 946.044 116.392L944.773 114.848C943.977 115.503 942.758 116.05 941.03 116.428C939.31 116.804 937.148 117 934.529 117V119ZM946.049 116.388C948.226 114.574 949.469 112.504 949.469 110.18H947.469C947.469 111.709 946.671 113.266 944.769 114.852L946.049 116.388ZM949.469 110.18C949.469 108.871 949.139 107.665 948.467 106.59L946.771 107.65C947.232 108.388 947.469 109.222 947.469 110.18H949.469ZM948.533 106.714C947.965 105.438 946.872 104.393 945.403 103.536L944.395 105.264C945.646 105.993 946.365 106.762 946.705 107.526L948.533 106.714ZM945.453 103.568C943.959 102.572 941.964 101.799 939.52 101.217L939.057 103.163C941.374 103.714 943.119 104.415 944.344 105.232L945.453 103.568ZM939.531 101.22C937.199 100.637 934.256 100.177 930.715 99.8346L930.522 101.825C934.009 102.163 936.845 102.61 939.046 103.16L939.531 101.22ZM930.702 99.8335C921.299 99.0499 913.898 96.6504 908.423 92.7085L907.254 94.3315C913.113 98.5496 920.899 101.023 930.536 101.827L930.702 99.8335ZM908.441 92.722C903.18 88.7488 900.509 82.9487 900.509 75.16H898.509C898.509 83.4646 901.391 89.9045 907.236 94.318L908.441 92.722ZM900.509 75.16V74.14H898.509V75.16H900.509ZM900.509 74.14C900.509 70.0947 901.382 66.5873 903.097 63.5861L901.361 62.5939C899.449 65.9394 898.509 69.7986 898.509 74.14H900.509ZM903.097 63.5861C904.841 60.5348 907.126 57.9776 909.959 55.9074L908.779 54.2926C905.718 56.5291 903.244 59.2985 901.361 62.5939L903.097 63.5861ZM909.978 55.8926C912.82 53.7072 916.107 52.0607 919.851 50.9594L919.287 49.0406C915.324 50.206 911.811 51.9595 908.759 54.3074L909.978 55.8926ZM919.851 50.9594C923.611 49.8534 927.483 49.3 931.469 49.3V47.3C927.295 47.3 923.233 47.8799 919.287 49.0406L919.851 50.9594ZM931.469 49.3C936.715 49.3 941.186 49.9702 944.906 51.283L945.572 49.397C941.584 47.9898 936.876 47.3 931.469 47.3V49.3ZM944.939 51.294C948.812 52.5111 952.041 54.1599 954.648 56.224L955.889 54.6559C953.057 52.4135 949.599 50.6622 945.539 49.386L944.939 51.294ZM954.669 56.24C957.304 58.2164 959.431 60.4561 961.061 62.9563L962.736 61.8637C960.967 59.1506 958.674 56.7436 955.869 54.64L954.669 56.24ZM961.073 62.9733C962.736 65.4135 964 67.7811 964.874 70.076L966.743 69.364C965.804 66.8989 964.461 64.3931 962.725 61.8467L961.073 62.9733ZM965.435 68.7926L946.055 76.6126L946.803 78.4673L966.183 70.6473L965.435 68.7926ZM947.377 77.2238C946.293 73.9714 944.409 71.4058 941.722 69.5738L940.595 71.2262C942.895 72.7942 944.524 74.9886 945.48 77.8562L947.377 77.2238ZM941.747 69.5913C939.039 67.6221 935.586 66.68 931.469 66.68V68.68C935.285 68.68 938.291 69.5512 940.571 71.2087L941.747 69.5913ZM931.469 66.68C927.746 66.68 924.771 67.373 922.709 68.92L923.909 70.52C925.473 69.347 927.938 68.68 931.469 68.68V66.68ZM922.742 68.896C920.702 70.2984 919.589 72.1732 919.589 74.48H921.589C921.589 72.9334 922.289 71.6349 923.875 70.544L922.742 68.896ZM1184.53 135V136H1185.47L1185.53 135.066L1184.53 135ZM1147.47 135L1146.48 135.074L1146.54 136H1147.47V135ZM1142.71 71.08H1141.71V71.1172L1141.72 71.1543L1142.71 71.08ZM1142.71 60.88H1143.71V59.88H1142.71V60.88ZM1138.63 60.88V59.88H1137.63V60.88H1138.63ZM1138.63 71.08L1139.63 71.1543L1139.63 71.1172V71.08H1138.63ZM1133.87 135V136H1134.8L1134.87 135.074L1133.87 135ZM1096.81 135L1095.81 135.066L1095.88 136H1096.81V135ZM1091.2 50.68V49.68H1090.13L1090.2 50.7464L1091.2 50.68ZM1110.92 50.68L1111.92 50.6216L1111.87 49.68H1110.92V50.68ZM1114.66 114.6H1115.66V114.571L1115.66 114.542L1114.66 114.6ZM1114.66 124.8H1113.66V125.8H1114.66V124.8ZM1118.74 124.8V125.8H1119.74V124.8H1118.74ZM1118.74 114.6L1117.74 114.534L1117.74 114.567V114.6H1118.74ZM1122.99 50.68V49.68H1122.06L1121.99 50.6137L1122.99 50.68ZM1158.35 50.68L1159.35 50.6137L1159.29 49.68H1158.35V50.68ZM1162.6 114.6H1163.6V114.567L1163.6 114.534L1162.6 114.6ZM1162.6 124.8H1161.6V125.8H1162.6V124.8ZM1166.68 124.8V125.8H1167.68V124.8H1166.68ZM1166.68 114.6L1165.68 114.542L1165.68 114.571V114.6H1166.68ZM1170.42 50.68V49.68H1169.48L1169.42 50.6216L1170.42 50.68ZM1190.14 50.68L1191.14 50.7464L1191.21 49.68H1190.14V50.68ZM1184.53 134H1147.47V136H1184.53V134ZM1148.47 134.926L1143.71 71.0057L1141.72 71.1543L1146.48 135.074L1148.47 134.926ZM1143.71 71.08V60.88H1141.71V71.08H1143.71ZM1142.71 59.88H1138.63V61.88H1142.71V59.88ZM1137.63 60.88V71.08H1139.63V60.88H1137.63ZM1137.64 71.0057L1132.88 134.926L1134.87 135.074L1139.63 71.1543L1137.64 71.0057ZM1133.87 134H1096.81V136H1133.87V134ZM1097.81 134.934L1092.2 50.6136L1090.2 50.7464L1095.81 135.066L1097.81 134.934ZM1091.2 51.68H1110.92V49.68H1091.2V51.68ZM1109.92 50.7384L1113.66 114.658L1115.66 114.542L1111.92 50.6216L1109.92 50.7384ZM1113.66 114.6V124.8H1115.66V114.6H1113.66ZM1114.66 125.8H1118.74V123.8H1114.66V125.8ZM1119.74 124.8V114.6H1117.74V124.8H1119.74ZM1119.74 114.666L1123.99 50.7463L1121.99 50.6137L1117.74 114.534L1119.74 114.666ZM1122.99 51.68H1158.35V49.68H1122.99V51.68ZM1157.35 50.7463L1161.6 114.666L1163.6 114.534L1159.35 50.6137L1157.35 50.7463ZM1161.6 114.6V124.8H1163.6V114.6H1161.6ZM1162.6 125.8H1166.68V123.8H1162.6V125.8ZM1167.68 124.8V114.6H1165.68V124.8H1167.68ZM1167.68 114.658L1171.42 50.7384L1169.42 50.6216L1165.68 114.542L1167.68 114.658ZM1170.42 51.68H1190.14V49.68H1170.42V51.68ZM1189.14 50.6136L1183.53 134.934L1185.53 135.066L1191.14 50.7464L1189.14 50.6136ZM1285.05 112.56L1285.97 112.968L1285.97 112.961L1285.05 112.56ZM1275.36 126.16L1276.03 126.907L1276.03 126.902L1276.04 126.897L1275.36 126.16ZM1261.25 134.49L1260.91 133.55L1260.91 133.552L1261.25 134.49ZM1228.1 134.49L1227.76 135.428L1227.76 135.43L1228.1 134.49ZM1214.16 126.16L1213.49 126.897L1213.49 126.902L1213.5 126.907L1214.16 126.16ZM1204.47 112.56L1203.56 112.961L1203.56 112.968L1204.47 112.56ZM1204.47 73.46L1205.39 73.8679L1205.39 73.8608L1204.47 73.46ZM1228.1 51.19L1227.76 50.2496L1227.76 50.252L1228.1 51.19ZM1261.25 51.19L1260.91 52.128L1260.91 52.1304L1261.25 51.19ZM1275.36 59.69L1276.04 58.9528L1276.04 58.9528L1275.36 59.69ZM1285.05 73.46L1284.14 73.8608L1284.14 73.8679L1285.05 73.46ZM1253.43 115.45L1253.79 116.386L1253.79 116.386L1253.43 115.45ZM1260.57 111.03L1261.26 111.757L1261.26 111.757L1260.57 111.03ZM1265.33 104.06L1264.42 103.657L1264.41 103.666L1264.41 103.675L1265.33 104.06ZM1265.33 81.79L1264.41 82.1614L1264.41 82.1843L1264.43 82.2067L1265.33 81.79ZM1253.43 70.23L1253.79 69.2937L1253.79 69.2937L1253.43 70.23ZM1236.09 70.23L1236.45 71.1663L1236.45 71.1663L1236.09 70.23ZM1228.95 74.65L1229.64 75.377L1229.64 75.377L1228.95 74.65ZM1224.02 81.79L1223.11 81.3873L1223.1 81.3963L1223.1 81.4054L1224.02 81.79ZM1224.02 104.06L1223.1 104.431L1223.1 104.454L1223.12 104.477L1224.02 104.06ZM1228.95 111.03L1229.64 110.303L1229.64 110.303L1228.95 111.03ZM1236.09 115.45L1236.45 114.514L1236.45 114.514L1236.09 115.45ZM1287.62 93.86C1287.62 100.774 1286.45 106.867 1284.14 112.159L1285.97 112.961C1288.41 107.373 1289.62 101 1289.62 93.86H1287.62ZM1284.14 112.152C1281.81 117.361 1278.66 121.78 1274.69 125.423L1276.04 126.897C1280.23 123.06 1283.53 118.413 1285.97 112.968L1284.14 112.152ZM1274.7 125.413C1270.72 128.952 1266.13 131.664 1260.91 133.55L1261.59 135.43C1267.04 133.462 1271.85 130.622 1276.03 126.907L1274.7 125.413ZM1260.91 133.552C1255.81 135.436 1250.43 136.38 1244.76 136.38V138.38C1250.66 138.38 1256.27 137.397 1261.6 135.428L1260.91 133.552ZM1244.76 136.38C1239.1 136.38 1233.66 135.436 1228.44 133.55L1227.76 135.43C1233.2 137.397 1238.87 138.38 1244.76 138.38V136.38ZM1228.45 133.552C1223.35 131.668 1218.81 128.955 1214.83 125.413L1213.5 126.907C1217.67 130.618 1222.43 133.459 1227.76 135.428L1228.45 133.552ZM1214.84 125.423C1210.87 121.78 1207.71 117.361 1205.39 112.152L1203.56 112.968C1205.99 118.413 1209.3 123.06 1213.49 126.897L1214.84 125.423ZM1205.39 112.159C1203.07 106.867 1201.9 100.774 1201.9 93.86H1199.9C1199.9 101 1201.11 107.373 1203.56 112.961L1205.39 112.159ZM1201.9 93.86V91.82H1199.9V93.86H1201.9ZM1201.9 91.82C1201.9 85.0216 1203.07 79.0447 1205.39 73.8679L1203.56 73.0521C1201.11 78.5286 1199.9 84.7917 1199.9 91.82H1201.9ZM1205.39 73.8608C1207.72 68.539 1210.87 64.0663 1214.84 60.4272L1213.49 58.9528C1209.3 62.7937 1205.99 67.501 1203.56 73.0592L1205.39 73.8608ZM1214.84 60.4272C1218.82 56.7752 1223.36 54.0099 1228.45 52.128L1227.76 50.252C1222.42 52.2234 1217.66 55.1248 1213.49 58.9528L1214.84 60.4272ZM1228.44 52.1304C1233.66 50.244 1239.1 49.3 1244.76 49.3V47.3C1238.87 47.3 1233.2 48.2827 1227.76 50.2496L1228.44 52.1304ZM1244.76 49.3C1250.43 49.3 1255.81 50.244 1260.91 52.128L1261.6 50.252C1256.27 48.2827 1250.66 47.3 1244.76 47.3V49.3ZM1260.91 52.1304C1266.12 54.0132 1270.71 56.7785 1274.69 60.4272L1276.04 58.9528C1271.86 55.1215 1267.04 52.2201 1261.59 50.2496L1260.91 52.1304ZM1274.69 60.4272C1278.66 64.0663 1281.81 68.539 1284.14 73.8608L1285.97 73.0592C1283.54 67.501 1280.23 62.7937 1276.04 58.9528L1274.69 60.4272ZM1284.14 73.8679C1286.45 79.0447 1287.62 85.0216 1287.62 91.82H1289.62C1289.62 84.7917 1288.41 78.5286 1285.97 73.0521L1284.14 73.8679ZM1287.62 91.82V93.86H1289.62V91.82H1287.62ZM1244.76 117.98C1247.94 117.98 1250.95 117.451 1253.79 116.386L1253.08 114.514C1250.48 115.489 1247.71 115.98 1244.76 115.98V117.98ZM1253.79 116.386C1256.63 115.321 1259.12 113.778 1261.26 111.757L1259.89 110.303C1257.95 112.135 1255.68 113.539 1253.08 114.514L1253.79 116.386ZM1261.26 111.757C1263.41 109.729 1265.07 107.287 1266.26 104.445L1264.41 103.675C1263.33 106.273 1261.82 108.477 1259.89 110.303L1261.26 111.757ZM1266.25 104.463C1267.56 101.486 1268.2 98.1733 1268.2 94.54H1266.2C1266.2 97.9334 1265.6 100.967 1264.42 103.657L1266.25 104.463ZM1268.2 94.54V91.14H1266.2V94.54H1268.2ZM1268.2 91.14C1268.2 87.5077 1267.56 84.2449 1266.24 81.3733L1264.43 82.2067C1265.6 84.7751 1266.2 87.7457 1266.2 91.14H1268.2ZM1266.26 81.4186C1265.08 78.4625 1263.42 75.9577 1261.26 73.923L1259.89 75.377C1261.81 77.1956 1263.32 79.4508 1264.41 82.1614L1266.26 81.4186ZM1261.26 73.923C1259.12 71.9017 1256.63 70.3587 1253.79 69.2937L1253.08 71.1663C1255.68 72.1413 1257.95 73.545 1259.89 75.377L1261.26 73.923ZM1253.79 69.2937C1250.95 68.2294 1247.94 67.7 1244.76 67.7V69.7C1247.71 69.7 1250.48 70.1906 1253.08 71.1663L1253.79 69.2937ZM1244.76 67.7C1241.59 67.7 1238.58 68.2294 1235.74 69.2937L1236.45 71.1663C1239.05 70.1906 1241.82 69.7 1244.76 69.7V67.7ZM1235.74 69.2937C1232.9 70.3587 1230.41 71.9017 1228.27 73.923L1229.64 75.377C1231.58 73.545 1233.85 72.1413 1236.45 71.1663L1235.74 69.2937ZM1228.27 73.923C1226.12 75.9504 1224.4 78.4443 1223.11 81.3873L1224.94 82.1927C1226.14 79.469 1227.71 77.2029 1229.64 75.377L1228.27 73.923ZM1223.1 81.4054C1221.91 84.2683 1221.32 87.5195 1221.32 91.14H1223.32C1223.32 87.7338 1223.87 84.7517 1224.95 82.1746L1223.1 81.4054ZM1221.32 91.14V94.54H1223.32V91.14H1221.32ZM1221.32 94.54C1221.32 98.1615 1221.91 101.463 1223.1 104.431L1224.95 103.689C1223.87 100.99 1223.32 97.9451 1223.32 94.54H1221.32ZM1223.12 104.477C1224.41 107.306 1226.13 109.736 1228.27 111.757L1229.64 110.303C1227.7 108.47 1226.13 106.254 1224.93 103.643L1223.12 104.477ZM1228.27 111.757C1230.41 113.778 1232.9 115.321 1235.74 116.386L1236.45 114.514C1233.85 113.539 1231.58 112.135 1229.64 110.303L1228.27 111.757ZM1235.74 116.386C1238.58 117.451 1241.59 117.98 1244.76 117.98V115.98C1241.82 115.98 1239.05 115.489 1236.45 114.514L1235.74 116.386ZM1306.02 50.68V49.68H1305.02V50.68H1306.02ZM1341.72 50.68H1342.72V49.68H1341.72V50.68ZM1341.72 62.92H1340.72V63.92H1341.72V62.92ZM1344.78 62.92V63.92H1345.49L1345.72 63.2431L1344.78 62.92ZM1352.77 52.21L1353.32 53.0421L1353.33 53.0383L1352.77 52.21ZM1386.77 56.29L1386.04 56.9816L1386.05 56.9893L1386.77 56.29ZM1394.42 84L1394.51 84.9958L1395.42 84.9119V84H1394.42ZM1372.32 86.04H1371.32V87.1366L1372.41 87.0358L1372.32 86.04ZM1368.75 72.61L1367.98 73.2532L1367.99 73.2609L1367.99 73.2685L1368.75 72.61ZM1346.82 73.29L1346.05 72.6524L1346.05 72.6524L1346.82 73.29ZM1342.74 114.6H1341.74V115.6H1342.74V114.6ZM1362.12 114.6H1363.12V113.6H1362.12V114.6ZM1362.12 135V136H1363.12V135H1362.12ZM1303.98 135H1302.98V136H1303.98V135ZM1303.98 114.6V113.6H1302.98V114.6H1303.98ZM1321.32 114.6V115.6H1322.32V114.6H1321.32ZM1321.32 71.08H1322.32V70.08H1321.32V71.08ZM1306.02 71.08H1305.02V72.08H1306.02V71.08ZM1306.02 51.68H1341.72V49.68H1306.02V51.68ZM1340.72 50.68V62.92H1342.72V50.68H1340.72ZM1341.72 63.92H1344.78V61.92H1341.72V63.92ZM1345.72 63.2431C1347.24 58.7842 1349.78 55.402 1353.32 53.042L1352.21 51.3779C1348.27 54.0047 1345.48 57.7625 1343.83 62.5969L1345.72 63.2431ZM1353.33 53.0383C1356.99 50.5592 1361.38 49.3 1366.54 49.3V47.3C1361.04 47.3 1356.25 48.6475 1352.21 51.3817L1353.33 53.0383ZM1366.54 49.3C1374.69 49.3 1381.16 51.8797 1386.04 56.9816L1387.49 55.5984C1382.17 50.047 1375.15 47.3 1366.54 47.3V49.3ZM1386.05 56.9893C1390.9 61.943 1393.42 69.6313 1393.42 80.26H1395.42C1395.42 69.3553 1392.83 61.0637 1387.48 55.5907L1386.05 56.9893ZM1393.42 80.26V84H1395.42V80.26H1393.42ZM1394.32 83.0042L1372.22 85.0442L1372.41 87.0358L1394.51 84.9958L1394.32 83.0042ZM1373.32 86.04V83.66H1371.32V86.04H1373.32ZM1373.32 83.66C1373.32 78.8421 1372.08 74.9009 1369.5 71.9515L1367.99 73.2685C1370.17 75.7591 1371.32 79.1846 1371.32 83.66H1373.32ZM1369.51 71.9668C1366.89 68.8458 1363 67.36 1358.04 67.36V69.36C1362.59 69.36 1365.84 70.7076 1367.98 73.2532L1369.51 71.9668ZM1358.04 67.36C1353.02 67.36 1348.98 69.1078 1346.05 72.6524L1347.59 73.9276C1350.09 70.8989 1353.53 69.36 1358.04 69.36V67.36ZM1346.05 72.6524C1343.12 76.1822 1341.74 81.1462 1341.74 87.4H1343.74C1343.74 81.4138 1345.07 76.9711 1347.59 73.9276L1346.05 72.6524ZM1341.74 87.4V114.6H1343.74V87.4H1341.74ZM1342.74 115.6H1362.12V113.6H1342.74V115.6ZM1361.12 114.6V135H1363.12V114.6H1361.12ZM1362.12 134H1303.98V136H1362.12V134ZM1304.98 135V114.6H1302.98V135H1304.98ZM1303.98 115.6H1321.32V113.6H1303.98V115.6ZM1322.32 114.6V71.08H1320.32V114.6H1322.32ZM1321.32 70.08H1306.02V72.08H1321.32V70.08ZM1307.02 71.08V50.68H1305.02V71.08H1307.02ZM1442.41 81.62H1441.41V82.62H1442.41V81.62ZM1446.49 81.62V82.62H1447L1447.3 82.2071L1446.49 81.62ZM1468.93 50.68V49.68H1468.42L1468.12 50.0929L1468.93 50.68ZM1492.39 50.68H1493.39V49.68H1492.39V50.68ZM1492.39 51.7L1493.21 52.2761L1493.39 52.017V51.7H1492.39ZM1465.19 90.29L1464.37 89.7139L1464.19 89.973V90.29H1465.19ZM1465.19 93.35H1464.19V93.6785L1464.38 93.943L1465.19 93.35ZM1495.11 133.98H1496.11V133.652L1495.91 133.387L1495.11 133.98ZM1495.11 135V136H1496.11V135H1495.11ZM1470.63 135L1469.82 135.591L1470.12 136H1470.63V135ZM1446.49 102.02L1447.29 101.429L1447 101.02H1446.49V102.02ZM1442.41 102.02V101.02H1441.41V102.02H1442.41ZM1442.41 135V136H1443.41V135H1442.41ZM1420.99 135H1419.99V136H1420.99V135ZM1420.99 16V15H1419.99V16H1420.99ZM1442.41 16H1443.41V15H1442.41V16ZM1442.41 82.62H1446.49V80.62H1442.41V82.62ZM1447.3 82.2071L1469.74 51.2671L1468.12 50.0929L1445.68 81.0329L1447.3 82.2071ZM1468.93 51.68H1492.39V49.68H1468.93V51.68ZM1491.39 50.68V51.7H1493.39V50.68H1491.39ZM1491.57 51.1239L1464.37 89.7139L1466.01 90.8661L1493.21 52.2761L1491.57 51.1239ZM1464.19 90.29V93.35H1466.19V90.29H1464.19ZM1464.38 93.943L1494.3 134.573L1495.91 133.387L1465.99 92.757L1464.38 93.943ZM1494.11 133.98V135H1496.11V133.98H1494.11ZM1495.11 134H1470.63V136H1495.11V134ZM1471.43 134.409L1447.29 101.429L1445.68 102.611L1469.82 135.591L1471.43 134.409ZM1446.49 101.02H1442.41V103.02H1446.49V101.02ZM1441.41 102.02V135H1443.41V102.02H1441.41ZM1442.41 134H1420.99V136H1442.41V134ZM1421.99 135V16H1419.99V135H1421.99ZM1420.99 17H1442.41V15H1420.99V17ZM1441.41 16V81.62H1443.41V16H1441.41ZM1571.83 127.69L1570.92 127.284L1570.91 127.296L1570.9 127.309L1571.83 127.69ZM1568.43 132.79L1569.11 133.525L1569.12 133.511L1569.14 133.497L1568.43 132.79ZM1563.16 136.02L1562.8 135.088L1562.76 135.1L1562.73 135.115L1563.16 136.02ZM1550.75 136.02L1551.18 135.115L1551.15 135.105L1551.13 135.095L1550.75 136.02ZM1545.65 132.79L1544.94 133.497L1544.96 133.511L1544.97 133.525L1545.65 132.79ZM1542.08 127.69L1541.15 128.052L1541.16 128.085L1541.17 128.116L1542.08 127.69ZM1542.08 114.94L1541.17 114.534L1541.16 114.546L1541.15 114.559L1542.08 114.94ZM1545.65 109.84L1546.33 110.575L1546.34 110.561L1546.36 110.547L1545.65 109.84ZM1550.75 106.44L1551.13 107.365L1551.15 107.355L1551.18 107.345L1550.75 106.44ZM1563.16 106.44L1562.73 107.345L1562.76 107.36L1562.8 107.372L1563.16 106.44ZM1568.43 109.84L1567.72 110.547L1567.74 110.561L1567.75 110.575L1568.43 109.84ZM1571.83 114.94L1570.9 115.302L1570.91 115.335L1570.92 115.366L1571.83 114.94ZM1572.19 121.23C1572.19 123.359 1571.76 125.374 1570.92 127.284L1572.74 128.096C1573.71 125.926 1574.19 123.634 1574.19 121.23H1572.19ZM1570.9 127.309C1570.16 129.114 1569.1 130.703 1567.72 132.083L1569.14 133.497C1570.7 131.93 1571.91 130.119 1572.75 128.071L1570.9 127.309ZM1567.75 132.055C1566.38 133.323 1564.73 134.336 1562.8 135.088L1563.52 136.952C1565.67 136.117 1567.53 134.977 1569.11 133.525L1567.75 132.055ZM1562.73 135.115C1560.94 135.958 1559.05 136.38 1557.04 136.38V138.38C1559.34 138.38 1561.52 137.895 1563.59 136.925L1562.73 135.115ZM1557.04 136.38C1554.91 136.38 1552.96 135.955 1551.18 135.115L1550.32 136.925C1552.39 137.898 1554.64 138.38 1557.04 138.38V136.38ZM1551.13 135.095C1549.31 134.345 1547.71 133.332 1546.33 132.055L1544.97 133.525C1546.54 134.968 1548.34 136.108 1550.37 136.945L1551.13 135.095ZM1546.36 132.083C1544.97 130.693 1543.84 129.089 1542.98 127.264L1541.17 128.116C1542.13 130.145 1543.39 131.94 1544.94 133.497L1546.36 132.083ZM1543.01 127.328C1542.26 125.407 1541.89 123.377 1541.89 121.23H1539.89C1539.89 123.616 1540.31 125.893 1541.15 128.052L1543.01 127.328ZM1541.89 121.23C1541.89 119.082 1542.26 117.116 1543 115.321L1541.15 114.559C1540.31 116.617 1539.89 118.844 1539.89 121.23H1541.89ZM1542.99 115.346C1543.85 113.416 1544.97 111.832 1546.33 110.575L1544.97 109.105C1543.39 110.568 1542.12 112.384 1541.17 114.534L1542.99 115.346ZM1546.36 110.547C1547.74 109.167 1549.33 108.108 1551.13 107.365L1550.37 105.515C1548.32 106.359 1546.51 107.566 1544.94 109.133L1546.36 110.547ZM1551.18 107.345C1552.96 106.505 1554.91 106.08 1557.04 106.08V104.08C1554.64 104.08 1552.39 104.562 1550.32 105.535L1551.18 107.345ZM1557.04 106.08C1559.05 106.08 1560.94 106.502 1562.73 107.345L1563.59 105.535C1561.52 104.565 1559.34 104.08 1557.04 104.08V106.08ZM1562.8 107.372C1564.71 108.118 1566.35 109.177 1567.72 110.547L1569.14 109.133C1567.56 107.557 1565.68 106.349 1563.52 105.508L1562.8 107.372ZM1567.75 110.575C1569.1 111.822 1570.15 113.391 1570.9 115.302L1572.76 114.578C1571.92 112.409 1570.7 110.578 1569.11 109.105L1567.75 110.575ZM1570.92 115.366C1571.76 117.151 1572.19 119.101 1572.19 121.23H1574.19C1574.19 118.826 1573.71 116.583 1572.73 114.514L1570.92 115.366Z" fill="white" mask="url(#path-1-outside-1_901_409)"/>
</g>
</g>
<defs>
<filter id="filter0_d_901_409" x="-4" y="0" width="1448" height="158" filterUnits="userSpaceOnUse" color-interpolation-filters="sRGB">
<feFlood flood-opacity="0" result="BackgroundImageFix"/>
<feColorMatrix in="SourceAlpha" type="matrix" values="0 0 0 0 0 0 0 0 0 0 0 0 0 0 0 0 0 0 127 0" result="hardAlpha"/>
<feOffset dy="4"/>
<feGaussianBlur stdDeviation="2"/>
<feComposite in2="hardAlpha" operator="out"/>
<feColorMatrix type="matrix" values="0 0 0 0 0 0 0 0 0 0 0 0 0 0 0 0 0 0 0.25 0"/>
<feBlend mode="normal" in2="BackgroundImageFix" result="effect1_dropShadow_901_409"/>
<feBlend mode="normal" in="SourceGraphic" in2="effect1_dropShadow_901_409" result="shape"/>
</filter>
<filter id="filter1_d_901_409" x="-776.25" y="13.6201" width="2353.44" height="131.76" filterUnits="userSpaceOnUse" color-interpolation-filters="sRGB">
<feFlood flood-opacity="0" result="BackgroundImageFix"/>
<feColorMatrix in="SourceAlpha" type="matrix" values="0 0 0 0 0 0 0 0 0 0 0 0 0 0 0 0 0 0 127 0" result="hardAlpha"/>
<feOffset dy="4"/>
<feGaussianBlur stdDeviation="2"/>
<feComposite in2="hardAlpha" operator="out"/>
<feColorMatrix type="matrix" values="0 0 0 0 0 0 0 0 0 0 0 0 0 0 0 0 0 0 0.25 0"/>
<feBlend mode="normal" in2="BackgroundImageFix" result="effect1_dropShadow_901_409"/>
<feBlend mode="normal" in="SourceGraphic" in2="effect1_dropShadow_901_409" result="shape"/>
</filter>
<clipPath id="clip0_901_409">
<rect width="1440" height="150" fill="white"/>
</clipPath>
</defs>
</svg>
